<svg width="86" height="78" viewBox="0 0 86 78" fill="none" xmlns="http://www.w3.org/2000/svg">
<g filter="url(#filter0_d_567_448)">
<rect x="4" y="4" width="70" height="70" rx="35" fill="white" shape-rendering="crispEdges"/>
<path d="M36.7844 41.44C37.4244 40.88 38.131 40.2667 38.9044 39.6C39.7044 38.9333 40.451 38.24 41.1444 37.52C41.8644 36.7733 42.451 35.9733 42.9044 35.12C43.3844 34.2667 43.6244 33.3467 43.6244 32.36C43.6244 30.92 43.1977 29.76 42.3444 28.88C41.491 28 40.2644 27.56 38.6644 27.56C37.3844 27.56 36.3044 27.8533 35.4244 28.44C34.5444 29.0267 33.9977 29.8133 33.7844 30.8H29.2244C29.331 29.5733 29.6644 28.48 30.2244 27.52C30.811 26.56 31.5444 25.7733 32.4244 25.16C33.3044 24.5467 34.2644 24.1067 35.3044 23.84C36.371 23.5467 37.5844 23.4 38.9444 23.4C40.2244 23.4 41.4244 23.5733 42.5444 23.92C43.6644 24.2667 44.6377 24.7867 45.4644 25.48C46.3177 26.1733 46.9844 27.0533 47.4644 28.12C47.971 29.16 48.2244 30.3867 48.2244 31.8C48.2244 32.92 48.0777 33.9467 47.7844 34.88C47.491 35.8133 47.091 36.68 46.5844 37.48C46.0777 38.28 45.491 39.0267 44.8244 39.72C44.1844 40.4133 43.5044 41.0667 42.7844 41.68C41.8244 42.5067 40.971 43.2267 40.2244 43.84C39.5044 44.4267 38.851 44.96 38.2644 45.44C37.6777 45.92 37.1444 46.36 36.6644 46.76C36.1844 47.1333 35.731 47.5067 35.3044 47.88H48.2244V52H28.9844V48.2L36.7844 41.44Z" fill="#1E1F1F"/>
</g>
<defs>
<filter id="filter0_d_567_448" x="-8" y="-8" width="94" height="94" filterUnits="userSpaceOnUse" color-interpolation-filters="sRGB">
<feFlood flood-opacity="0" result="BackgroundImageFix"/>
<feColorMatrix in="SourceAlpha" type="matrix" values="0 0 0 0 0 0 0 0 0 0 0 0 0 0 0 0 0 0 127 0" result="hardAlpha"/>
<feOffset/>
<feGaussianBlur stdDeviation="6"/>
<feComposite in2="hardAlpha" operator="out"/>
<feColorMatrix type="matrix" values="0 0 0 0 0.297222 0 0 0 0 0.333333 0 0 0 0 0.321296 0 0 0 0.16 0"/>
<feBlend mode="normal" in2="BackgroundImageFix" result="effect1_dropShadow_567_448"/>
<feBlend mode="normal" in="SourceGraphic" in2="effect1_dropShadow_567_448" result="shape"/>
</filter>
</defs>
</svg>
