<svg width="86" height="78" viewBox="0 0 86 78" fill="none" xmlns="http://www.w3.org/2000/svg">
<g filter="url(#filter0_d_567_382)">
<rect x="4" y="4" width="70" height="70" rx="35" fill="white" shape-rendering="crispEdges"/>
<path d="M38.6897 52.28C37.383 52.28 36.1297 52.1467 34.9297 51.88C33.7297 51.5867 32.6497 51.1467 31.6897 50.56C30.7564 49.9467 29.9564 49.16 29.2897 48.2C28.6497 47.24 28.2364 46.08 28.0497 44.72H32.7297C32.943 45.4133 33.263 45.9733 33.6897 46.4C34.1164 46.8267 34.5964 47.1733 35.1297 47.44C35.6897 47.7067 36.2764 47.8933 36.8897 48C37.503 48.08 38.103 48.12 38.6897 48.12C39.303 48.12 39.943 48.0667 40.6097 47.96C41.2764 47.8267 41.8764 47.6 42.4097 47.28C42.9697 46.96 43.423 46.52 43.7697 45.96C44.143 45.3733 44.3297 44.6133 44.3297 43.68C44.3297 42.8267 44.1564 42.1333 43.8097 41.6C43.4897 41.0667 43.0497 40.6533 42.4897 40.36C41.9564 40.0667 41.343 39.8667 40.6497 39.76C39.983 39.6533 39.303 39.6 38.6097 39.6H35.8097V35.68H37.4497C38.0897 35.68 38.7564 35.6133 39.4497 35.48C40.143 35.3467 40.7697 35.12 41.3297 34.8C41.9164 34.48 42.383 34.0533 42.7297 33.52C43.103 32.9867 43.2897 32.32 43.2897 31.52C43.2897 30.7467 43.1564 30.1067 42.8897 29.6C42.623 29.0667 42.263 28.6533 41.8097 28.36C41.3564 28.04 40.8364 27.8267 40.2497 27.72C39.6897 27.5867 39.0897 27.52 38.4497 27.52C37.3564 27.52 36.3297 27.7733 35.3697 28.28C34.4097 28.76 33.783 29.6133 33.4897 30.84H28.9297C29.0897 29.5333 29.4497 28.4133 30.0097 27.48C30.5697 26.52 31.2897 25.7467 32.1697 25.16C33.0497 24.5467 34.0364 24.0933 35.1297 23.8C36.2497 23.5067 37.423 23.36 38.6497 23.36C39.8497 23.36 40.9964 23.4933 42.0897 23.76C43.2097 24.0267 44.1964 24.4533 45.0497 25.04C45.903 25.6267 46.583 26.4 47.0897 27.36C47.5964 28.2933 47.8497 29.44 47.8497 30.8C47.8497 31.92 47.5697 33.0267 47.0097 34.12C46.4764 35.2133 45.4764 36.1333 44.0097 36.88C45.6897 37.3333 46.943 38.16 47.7697 39.36C48.5964 40.5333 49.0097 41.96 49.0097 43.64C49.0097 45.1867 48.7164 46.5067 48.1297 47.6C47.5697 48.6667 46.823 49.56 45.8897 50.28C44.983 50.9733 43.903 51.48 42.6497 51.8C41.3964 52.12 40.0764 52.28 38.6897 52.28Z" fill="#1E1F1F"/>
</g>
<defs>
<filter id="filter0_d_567_382" x="-8" y="-8" width="94" height="94" filterUnits="userSpaceOnUse" color-interpolation-filters="sRGB">
<feFlood flood-opacity="0" result="BackgroundImageFix"/>
<feColorMatrix in="SourceAlpha" type="matrix" values="0 0 0 0 0 0 0 0 0 0 0 0 0 0 0 0 0 0 127 0" result="hardAlpha"/>
<feOffset/>
<feGaussianBlur stdDeviation="6"/>
<feComposite in2="hardAlpha" operator="out"/>
<feColorMatrix type="matrix" values="0 0 0 0 0.297222 0 0 0 0 0.333333 0 0 0 0 0.321296 0 0 0 0.16 0"/>
<feBlend mode="normal" in2="BackgroundImageFix" result="effect1_dropShadow_567_382"/>
<feBlend mode="normal" in="SourceGraphic" in2="effect1_dropShadow_567_382" result="shape"/>
</filter>
</defs>
</svg>
