<svg width="231" height="256" viewBox="0 0 231 256" fill="none" xmlns="http://www.w3.org/2000/svg">
<path d="M170.342 267.514C155.342 291.446 138.342 288.953 84.3419 273.497C30.3419 258.041 -9.15806 198.71 4.84194 145.362C11.4949 120.01 35.2967 99.502 59.5 85.1129M170.342 267.514C177.675 268.179 194.042 268.012 200.842 262.029C209.342 254.551 250.342 207.186 219.842 129.407C189.342 51.6284 149.342 53.1241 104.342 64.5915C95.1079 67.5531 82.588 72.5943 69.5 79.5083M170.342 267.514L149.842 265.021" stroke="#EDF0EF" stroke-width="3" stroke-linecap="round"/>
<path d="M147.842 77.0561C155.175 78.8842 172.042 85.0334 180.842 95.005" stroke="#EDF0EF" stroke-width="3" stroke-linecap="round"/>
<path d="M105.342 81.5433C102.525 85.4765 96.3098 91.9741 87.3419 97.6823M61.8419 107.968C67.0618 106.964 71.9095 105.4 76.3419 103.502M76.3419 103.502C62.0086 88.8699 33.3419 54.62 33.3419 34.6768C46.9419 33.8791 50.6753 38.6654 50.8419 41.1583C50.2073 44.1299 50.0436 48.2611 50.8419 53.0835M76.3419 103.502C80.3608 101.781 84.0382 99.7852 87.3419 97.6823M87.3419 97.6823C64.2452 85.0734 55.625 72.3367 52.5 59.8353M50.8419 53.0835C54.5086 53.5957 64.2419 52.6257 73.8419 44.6484C85.8419 34.6768 77.8419 -12.1897 146.342 6.25773C146.342 30.9873 100.833 45.7089 77.5 48.8666C73.1561 52.5881 61.8873 60.7898 52.5 59.8353M50.8419 53.0835C51.0307 54.2239 52.1972 58.6239 52.5 59.8353" stroke="#EDF0EF" stroke-width="3" stroke-linecap="round"/>
<path d="M82.3419 41.1582C87.8419 30.688 106.042 10.1465 134.842 11.742" stroke="#EDF0EF" stroke-width="3" stroke-linecap="round"/>
</svg>
