<svg width="44" height="44" viewBox="0 0 44 44" fill="none" xmlns="http://www.w3.org/2000/svg">
<g filter="url(#filter0_d_63_639)">
<path d="M30.7377 15.7513C30.4009 15.4002 30.0526 15.0371 29.9211 14.7189C29.8001 14.4267 29.7928 13.9426 29.7857 13.4743C29.7726 12.603 29.7577 11.6154 29.0711 10.9289C28.3845 10.2424 27.397 10.2274 26.5257 10.2143C26.0574 10.2071 25.5734 10.1999 25.2811 10.0789C24.963 9.94741 24.5998 9.59911 24.2487 9.26232C23.6317 8.67054 22.9323 8 22 8C21.0677 8 20.3684 8.67054 19.7513 9.26232C19.4002 9.59911 19.0371 9.94741 18.7189 10.0789C18.4267 10.1999 17.9426 10.2072 17.4743 10.2143C16.603 10.2274 15.6154 10.2423 14.9289 10.9289C14.2424 11.6155 14.2274 12.603 14.2143 13.4744C14.2071 13.9426 14.1999 14.4266 14.0789 14.7189C13.9474 15.037 13.5991 15.4002 13.2623 15.7513C12.6705 16.3683 12 17.0677 12 18C12 18.9323 12.6705 19.6316 13.2623 20.2487C13.5991 20.5998 13.9474 20.9629 14.0789 21.2811C14.1999 21.5733 14.2072 22.0574 14.2143 22.5257C14.2274 23.397 14.2423 24.3846 14.9289 25.0711C15.6155 25.7576 16.603 25.7726 17.4744 25.7857C17.9426 25.7929 18.4266 25.8001 18.7189 25.9211C19.037 26.0526 19.4002 26.4009 19.7513 26.7377C20.3683 27.3295 21.0677 28 22 28C22.9323 28 23.6316 27.3295 24.2487 26.7377C24.5998 26.4009 24.9629 26.0526 25.2811 25.9211C25.5733 25.8001 26.0574 25.7928 26.5257 25.7857C27.397 25.7726 28.3846 25.7577 29.0711 25.0711C29.7576 24.3845 29.7726 23.397 29.7857 22.5257C29.7929 22.0574 29.8001 21.5734 29.9211 21.2811C30.0526 20.963 30.4009 20.5998 30.7377 20.2487C31.3295 19.6317 32 18.9323 32 18C32 17.0677 31.3295 16.3684 30.7377 15.7513Z" fill="url(#paint0_linear_63_639)"/>
<path d="M21.1834 21.3738L26.4216 16.3738C26.4906 16.3094 26.5461 16.2318 26.5849 16.1458C26.6238 16.0597 26.6452 15.9668 26.6479 15.8724C26.6506 15.778 26.6345 15.684 26.6007 15.5958C26.5668 15.5077 26.5158 15.4271 26.4506 15.3588C26.3854 15.2905 26.3073 15.2358 26.2208 15.1978C26.1343 15.1599 26.0412 15.1395 25.9468 15.1378C25.8524 15.1361 25.7585 15.1531 25.6708 15.1879C25.583 15.2227 25.5029 15.2745 25.4353 15.3404L20.6903 19.8696L18.5644 17.8404C18.4968 17.7745 18.4168 17.7227 18.329 17.6879C18.2412 17.6531 18.1474 17.6361 18.0529 17.6378C17.9585 17.6395 17.8654 17.6599 17.7789 17.6978C17.6924 17.7358 17.6143 17.7905 17.5491 17.8588C17.4839 17.9271 17.4329 18.0077 17.3991 18.0958C17.3652 18.184 17.3492 18.278 17.3519 18.3724C17.3546 18.4668 17.3759 18.5597 17.4148 18.6458C17.4536 18.7318 17.5092 18.8094 17.5782 18.8738L20.1972 21.3738C20.3301 21.5006 20.5067 21.5714 20.6903 21.5714C20.874 21.5714 21.0506 21.5006 21.1834 21.3738Z" fill="white"/>
</g>
<defs>
<filter id="filter0_d_63_639" x="-2" y="-2" width="48" height="48" filterUnits="userSpaceOnUse" color-interpolation-filters="sRGB">
<feFlood flood-opacity="0" result="BackgroundImageFix"/>
<feColorMatrix in="SourceAlpha" type="matrix" values="0 0 0 0 0 0 0 0 0 0 0 0 0 0 0 0 0 0 127 0" result="hardAlpha"/>
<feOffset dy="4"/>
<feGaussianBlur stdDeviation="6"/>
<feComposite in2="hardAlpha" operator="out"/>
<feColorMatrix type="matrix" values="0 0 0 0 0.208333 0 0 0 0 1 0 0 0 0 0.335 0 0 0 0.29 0"/>
<feBlend mode="normal" in2="BackgroundImageFix" result="effect1_dropShadow_63_639"/>
<feBlend mode="normal" in="SourceGraphic" in2="effect1_dropShadow_63_639" result="shape"/>
</filter>
<linearGradient id="paint0_linear_63_639" x1="12" y1="8.00129" x2="34.8569" y2="12.1099" gradientUnits="userSpaceOnUse">
<stop stop-color="#056B53"/>
<stop offset="1" stop-color="#21AF2D"/>
</linearGradient>
</defs>
</svg>
