<svg width="1240" height="520" viewBox="0 0 1240 520" fill="none" xmlns="http://www.w3.org/2000/svg">
<path fill-rule="evenodd" clip-rule="evenodd" d="M1240 0H0V520H1240V0ZM770.934 40.6885C771.6 32.3327 769.612 15.5419 757.993 10.4163C747.93 5.97673 738.969 6.00656 726.888 6.04678C725.712 6.05069 724.507 6.05471 723.268 6.05471C722.581 6.05471 720.997 6.05167 718.575 6.04703C671.757 5.95727 311.902 5.26739 69.1744 14.3166C59.4147 14.6805 52.4434 14.9444 44.1841 15.2719C38.4225 15.4984 33.1411 20.5126 29.7803 36.8953C26.4194 53.2781 18.7374 362.564 20.1779 410.176C20.1779 420.598 23.5387 512.447 44.1841 512.447C182.991 512.447 318.327 497.43 463.962 479.351C463.296 487.707 465.285 504.498 476.903 509.623C486.967 514.063 495.927 514.033 508.008 513.993C509.184 513.989 510.389 513.985 511.628 513.985C525.596 513.985 1157.92 501.156 1169.59 499.648C1181.25 498.14 1197.83 492.48 1200.32 475.586C1219.04 348.108 1220 145.822 1220 40.6885C1220 30.2666 1211.36 7.59229 1190.71 7.59229C1051.91 7.59229 916.569 22.6097 770.934 40.6885Z" fill="#FAFAFA"/>
</svg>
