<svg width="246" height="451" viewBox="0 0 246 451" fill="none" xmlns="http://www.w3.org/2000/svg">
<path d="M-24.3109 448.365C-24.3109 421.915 -22.2881 394.903 -15.4609 369.297C-8.88661 343.973 2.23917 320.618 17.9163 300.64C34.0992 280.1 52.5579 262.373 72.2808 246.053C92.2565 229.733 112.738 214.538 132.208 197.374C143.081 187.807 153.195 177.677 162.804 166.703C167.102 161.92 171.401 156.855 175.194 151.509C178.734 146.163 182.78 139.972 183.538 133.219C184.297 133.782 184.802 134.345 185.561 134.907C177.47 137.159 173.424 148.414 168.62 155.167C161.287 165.015 152.69 173.738 143.839 182.179C130.944 194.279 116.784 205.534 101.865 214.538C94.5321 219.04 86.4408 223.261 78.0965 224.105C77.085 224.105 76.5792 223.261 76.5792 222.417C75.5678 210.88 76.0736 199.344 76.3264 188.088C76.5793 174.301 77.085 160.232 77.085 146.444C77.085 136.596 77.5907 125.903 75.5679 116.336C75.315 115.211 75.0622 114.085 74.3036 112.96C74.0507 112.397 74.0507 112.678 73.7979 112.678C71.775 113.804 71.5221 115.774 71.2693 118.869C70.5107 125.341 71.0165 132.094 71.0165 138.565C71.2693 147.851 71.5222 157.418 71.775 166.703C72.0279 177.959 72.2807 189.214 72.0278 200.188C72.0278 206.378 71.7749 212.568 71.5221 218.759C71.5221 220.728 71.5221 222.979 70.7635 224.949C70.005 226.637 68.7406 228.044 67.7292 229.451C57.6149 244.083 44.2135 255.62 31.5706 267.438C18.6748 279.818 6.53761 292.762 -3.07098 308.519C-13.691 325.683 -22.0352 345.098 -26.8395 365.076C-32.1495 385.899 -33.6667 407.846 -35.6895 429.231C-36.1953 434.859 -36.701 440.205 -37.4596 445.833C-37.9653 445.27 -38.2182 444.707 -38.7239 444.144C-33.9196 445.833 -28.3567 446.958 -23.5524 444.988C-21.5295 444.144 -20.771 447.521 -22.7939 448.365C-28.1039 450.616 -34.4253 449.209 -39.7354 447.521C-40.2411 447.24 -40.9996 446.677 -40.9996 445.833C-38.4711 423.604 -37.4596 401.093 -33.4139 379.146C-29.621 357.479 -22.5409 336.938 -12.4266 317.805C-3.32372 300.359 8.56055 285.165 21.962 271.94C34.8578 259.278 48.7649 247.46 60.6492 233.109C62.9249 230.295 66.7178 226.637 67.7292 222.698C68.4878 220.166 68.2349 216.508 68.2349 213.694C68.4878 210.599 68.4879 207.222 68.4879 204.127C68.7408 192.028 68.7407 180.21 68.2349 168.11C67.9821 158.262 67.7293 148.132 67.4764 138.284C67.2235 131.531 66.9706 124.778 67.7292 118.306C67.9821 114.929 68.4878 112.116 71.2693 110.146C70.5107 110.709 71.775 109.865 72.0278 109.583C72.5335 109.302 73.0393 109.021 73.7979 109.021C74.8093 109.021 75.5679 109.583 76.3264 110.146C78.0964 112.116 78.6021 115.774 78.855 118.306C79.6136 123.371 79.8665 128.154 79.8665 133.219C80.6251 160.513 78.0964 187.807 79.1078 215.101C79.1078 217.352 79.3607 219.884 79.3607 222.135C78.855 221.573 78.3492 221.01 77.8435 220.447C85.6821 219.603 93.268 215.382 100.095 211.162C107.934 206.378 115.266 201.032 122.599 195.123C138.277 182.742 153.701 168.954 166.091 152.353C171.401 145.037 175.7 133.782 184.55 131.25C185.561 130.968 186.572 131.812 186.572 132.938C185.561 143.912 177.975 153.479 171.401 161.357C163.562 170.924 155.218 179.928 146.368 188.651C127.909 206.659 107.681 221.854 87.705 237.893C67.4764 253.931 47.7535 270.533 30.3063 290.511C13.112 310.207 -0.795166 332.718 -9.13947 358.886C-18.2424 387.587 -21.0238 417.976 -21.0238 448.365C-21.0238 450.616 -24.3109 450.616 -24.3109 448.365Z" fill="#EDF0EF"/>
<path d="M77.0849 199.904C90.9921 197.372 102.371 186.398 110.209 173.736C118.301 161.074 123.611 145.035 123.105 129.278C122.852 121.399 120.576 114.083 116.784 107.612C112.485 100.296 106.417 94.1053 103.888 85.9453C100.854 76.097 102.624 64.5604 102.876 54.4307C103.129 45.7079 102.371 36.9851 99.0836 28.8251C93.015 13.3492 80.1193 2.37535 64.695 3.50087C56.6035 4.06363 48.2591 7.72157 42.1906 13.6306C37.1334 18.6954 34.0991 25.7299 32.8348 33.0458C31.3176 40.6431 31.3177 48.5217 31.8235 56.4004C32.3292 64.279 33.5934 71.8763 32.0762 79.4735C29.5477 92.9798 19.4334 101.703 13.6177 113.239C5.77907 128.715 8.5605 148.412 14.882 163.606C18.422 171.766 23.2263 179.645 29.2949 185.554C36.8806 192.87 45.7305 195.684 55.592 197.091C60.1434 197.653 64.442 198.497 68.7406 199.904C70.7635 200.467 69.7521 203.844 67.9821 203.281C58.1206 200.186 47.7534 200.748 38.3977 196.246C30.5591 192.588 24.2377 185.835 19.1806 178.238C9.31911 163.606 4.00909 143.91 6.53767 125.62C7.5491 118.023 10.5833 111.27 14.629 105.361C18.4219 99.7329 22.7205 94.3867 26.0076 88.1963C29.8005 80.3177 30.0535 72.1577 29.2949 63.4349C28.5363 55.2748 28.0306 47.1148 28.7891 38.9548C29.5477 31.3575 31.3176 23.7603 35.3634 17.2885C39.6619 10.254 45.9834 5.75191 53.0634 2.93811C67.982 -2.97088 83.9121 0.968447 94.5322 14.1933C99.5893 20.3837 102.876 28.2623 104.646 36.4224C106.669 46.2707 105.911 56.119 105.405 66.2487C105.152 72.1577 104.899 78.6294 106.417 84.257C107.934 89.3219 110.715 93.5426 113.496 97.7633C118.301 104.798 122.852 111.551 124.875 120.274C128.162 135.75 124.369 152.351 118.048 166.42C111.474 180.77 100.854 193.995 87.4522 200.467C84.4179 201.874 81.1306 202.999 77.8434 203.844C76.0734 203.844 75.062 200.467 77.0849 199.904Z" fill="#EDF0EF"/>
<path d="M76.0733 178.521C84.1648 174.019 90.2333 166.141 95.0376 157.981C100.095 149.821 104.14 141.098 108.186 132.375C109.198 130.405 111.979 132.094 110.968 134.063C106.669 143.068 102.37 152.353 97.0605 160.794C92.0033 168.954 85.6818 176.833 77.5904 181.617C75.8204 182.742 74.0504 179.647 76.0733 178.521Z" fill="#EDF0EF"/>
<path d="M67.9822 174.864C54.075 162.202 38.1449 143.912 40.4206 121.964C40.6735 119.713 43.7078 119.713 43.455 121.964C41.1792 142.786 56.6036 160.232 70.005 172.331C71.775 173.738 69.4993 176.271 67.9822 174.864Z" fill="#EDF0EF"/>
<path d="M71.7748 111.553C73.2919 82.8526 62.6719 54.4332 68.4876 25.7324C68.9934 23.4814 72.0275 24.3255 71.5218 26.5766C65.9589 54.996 76.579 83.134 75.0619 111.553C74.809 113.804 71.7748 113.804 71.7748 111.553Z" fill="#EDF0EF"/>
<path d="M69.2464 110.146C65.7064 99.172 58.3735 90.7306 52.8107 81.1637C47.2478 71.3153 43.9607 60.9043 45.7307 49.3677C45.9835 47.1167 49.0177 47.9608 48.7648 50.2118C44.972 74.1291 65.4536 89.0423 72.2807 109.302C73.0393 111.271 70.005 112.397 69.2464 110.146Z" fill="#EDF0EF"/>
<path d="M75.0622 108.176C88.7165 100.86 89.4751 81.4452 89.4751 66.532C89.4751 64.281 92.7623 64.281 92.5094 66.532C92.5094 82.5707 91.4979 103.111 76.5792 111.271C74.8092 112.116 73.2922 109.302 75.0622 108.176Z" fill="#EDF0EF"/>
<path d="M100.853 111.553C95.7962 120.839 88.4634 127.31 81.1305 134.345C79.6134 135.752 77.3376 133.501 78.8547 131.813C85.6819 125.059 93.0147 118.588 98.0719 109.584C99.0833 107.895 101.865 109.584 100.853 111.553Z" fill="#EDF0EF"/>
<path d="M65.959 138.565C56.8561 131.531 50.5346 120.839 44.2131 110.709C42.9488 108.739 45.7303 107.051 46.9946 109.021C53.0632 118.587 58.8789 128.717 67.4761 135.47C68.9932 136.596 67.4761 139.691 65.959 138.565Z" fill="#EDF0EF"/>
<path d="M67.4766 173.175C61.6609 176.271 54.5808 177.115 48.0065 176.833C41.4322 176.552 34.0994 174.864 29.2952 169.236C28.0309 167.548 30.0536 165.015 31.5708 166.704C35.8694 171.769 42.6966 173.175 48.5123 173.457C54.328 173.738 60.6495 173.175 65.9595 170.362C67.7295 169.236 69.2466 172.05 67.4766 173.175Z" fill="#EDF0EF"/>
<path d="M45.9838 149.821C37.6395 151.791 27.2723 151.791 20.9508 144.756C19.4337 143.068 21.7095 140.817 23.2266 142.224C28.7895 148.414 38.1452 148.133 45.2253 146.444C47.2481 146.163 48.0067 149.54 45.9838 149.821Z" fill="#EDF0EF"/>
<path d="M119.818 210.599C125.634 215.101 132.967 216.508 140.047 216.789C147.379 217.071 154.712 216.789 161.792 215.101C168.872 213.694 175.952 211.162 182.779 208.348C189.859 205.253 196.94 201.314 202.25 194.842C204.525 191.747 206.548 188.37 207.054 184.431C207.307 181.054 206.548 177.396 206.042 174.02C204.778 167.829 203.514 161.639 205.031 155.167C207.307 144.193 216.157 137.44 223.742 131.25C233.098 123.371 241.443 114.93 242.707 101.142C243.971 85.1036 237.65 68.7835 226.777 58.3725C217.168 49.3683 200.985 43.1779 189.101 50.4938C181.262 55.5586 177.722 65.9697 173.424 74.1297C167.608 85.1036 159.769 92.4194 147.885 92.4194C142.069 92.4194 136.507 90.7312 130.691 90.4498C123.864 90.4498 122.094 98.0471 120.829 104.237C120.324 106.488 117.289 105.644 117.795 103.393C118.807 97.7657 120.577 90.7312 125.634 87.9174C129.679 85.9477 134.737 87.3546 139.035 88.1987C145.104 89.3243 151.425 89.6057 157.241 87.0732C162.045 84.8222 165.838 80.8829 168.619 76.0994C173.93 67.3766 176.964 56.4028 184.55 49.6497C194.411 40.9269 209.33 43.1779 219.95 49.0869C233.098 56.4028 242.707 71.0346 245.235 87.0732C247.511 101.424 244.73 114.93 235.121 125.06C227.282 133.501 216.157 138.847 210.341 149.54C206.801 156.011 207.054 162.764 208.318 169.799C209.582 176.271 211.353 183.024 208.824 189.496C203.008 205.253 184.297 212.006 170.895 215.945C156.988 220.166 141.311 222.136 127.151 217.634C123.864 216.508 120.829 215.101 118.301 213.132C116.531 212.287 118.048 209.192 119.818 210.599Z" fill="#EDF0EF"/>
<path d="M212.111 85.1037C182.274 91.5755 156.988 124.216 161.792 158.825C162.045 161.076 159.011 161.921 158.758 159.669C153.701 123.09 179.745 88.4803 211.353 81.4458C213.123 81.4458 214.134 84.8224 212.111 85.1037Z" fill="#EDF0EF"/>
<path d="M217.421 104.8C205.537 112.397 194.664 122.808 185.814 134.626C184.549 136.315 182.274 133.782 183.538 132.094C192.641 119.995 203.767 109.584 215.904 101.705C217.674 100.579 219.191 103.675 217.421 104.8Z" fill="#EDF0EF"/>
<path d="M196.433 164.734C192.135 168.392 186.319 170.361 181.009 171.206C175.699 172.05 170.136 172.05 164.826 170.361C162.803 169.799 163.815 166.422 165.585 166.985C170.389 168.392 175.699 168.392 180.503 167.548C185.561 166.703 190.618 165.015 194.663 161.357C196.433 160.232 197.951 163.327 196.433 164.734Z" fill="#EDF0EF"/>
<path d="M189.354 193.153C181.262 196.53 172.412 198.781 163.815 199.343C155.471 200.187 146.621 199.343 139.288 194.841C137.518 193.716 139.035 190.621 140.805 191.746C147.885 196.248 156.482 196.53 164.574 195.685C172.665 194.841 180.757 192.872 188.595 189.495C190.365 188.932 191.124 192.309 189.354 193.153Z" fill="#EDF0EF"/>
<path d="M142.069 113.523C136.759 123.371 134.736 135.189 134.736 146.444C134.736 157.137 136.507 168.392 142.069 177.396C143.334 179.366 140.552 181.054 139.288 179.085C133.472 169.799 131.449 157.7 131.449 146.444C131.449 134.345 133.725 121.964 139.288 111.553C140.552 109.865 143.334 111.553 142.069 113.523Z" fill="#EDF0EF"/>
<path d="M149.149 135.471C147.885 139.129 145.862 142.505 143.586 145.6C141.31 148.414 138.782 150.665 136.253 153.198C135.495 153.76 134.736 154.042 133.978 153.198C133.472 152.635 133.219 151.228 133.978 150.665C138.782 146.163 143.839 141.38 146.115 134.626C146.368 133.782 147.126 133.22 148.138 133.501C148.643 133.501 149.402 134.626 149.149 135.471Z" fill="#EDF0EF"/>
<path d="M193.4 110.428C185.561 112.398 178.228 115.211 170.137 116.056C169.378 116.056 168.62 115.211 168.62 114.367C168.62 113.242 169.378 112.679 170.137 112.679C177.723 111.835 185.056 109.021 192.389 107.051C194.664 106.489 195.423 110.147 193.4 110.428Z" fill="#EDF0EF"/>
<path d="M215.904 126.469C208.065 126.469 200.227 126.469 192.388 126.469C190.365 126.469 190.365 123.089 192.388 123.089C200.227 123.089 208.065 123.089 215.904 123.089C217.927 123.089 217.927 126.469 215.904 126.469Z" fill="#EDF0EF"/>
</svg>
