<svg width="80" height="80" viewBox="0 0 80 80" fill="none" xmlns="http://www.w3.org/2000/svg">
<path d="M61.1557 67.8214C67.1195 64.503 69.5723 57.329 67.1946 51.1378C66.9084 50.3926 67.2882 49.5261 68.0251 49.2189C68.7231 48.9279 69.4068 48.5638 70.0557 48.1213C74.6807 44.9713 76.3307 38.8464 73.9307 33.7964C71.0557 27.7464 63.7557 25.4964 58.0057 28.6964C57.1557 29.1714 56.4057 29.7214 55.7307 30.3714C52.0057 24.0964 43.9307 21.8714 37.5057 25.4714C33.4557 27.7214 31.0307 31.7714 30.6307 36.0464C28.3557 35.7964 25.9557 36.2214 23.8057 37.4214C20.4307 39.2964 18.3807 42.6463 18.0057 46.2213C17.5057 50.8463 14.9057 54.9963 10.8307 57.2713C6.25568 59.8214 4.63068 65.5963 7.18068 70.1713C9.73068 74.7463 15.5057 76.3713 20.0807 73.8214C24.1307 71.5464 29.0307 71.5213 33.2307 73.5213C36.4807 75.0714 40.4057 75.0964 43.7807 73.1964C45.5306 72.2197 46.9327 70.8455 47.9197 69.2356C48.2892 68.6328 49.0524 68.3671 49.7113 68.6236C53.3196 70.0286 57.511 69.8462 61.1557 67.8214Z" fill="url(#paint0_linear_63_243)"/>
<g filter="url(#filter0_f_63_243)">
<path d="M59.5188 66.0972C65.1546 62.9613 67.4726 56.1818 65.2256 50.3312C64.9551 49.6269 65.1192 48.4759 65.8155 48.1856C66.4751 47.9106 67.1212 47.5665 67.7344 47.1484C72.1051 44.1716 73.8593 38.7156 71.5912 33.9434C68.8744 28.2261 61.9758 26.0998 56.542 29.1238C55.7388 29.5727 55.03 30.0925 54.3921 30.7067C50.872 24.7768 43.2411 22.6742 37.1694 26.0762C33.3421 28.2025 31.0505 32.0297 30.6725 36.0696C28.5226 35.8334 26.2546 36.235 24.2228 37.369C21.0334 39.1409 19.0962 42.3067 18.7418 45.6851C18.2693 50.0557 15.8123 53.9775 11.9614 56.1274C7.63796 58.5371 6.10232 63.9946 8.51209 68.318C10.9219 72.6414 16.3793 74.177 20.7027 71.7672C24.5299 69.6173 29.1605 69.5937 33.1295 71.4837C36.2008 72.9485 39.9099 72.9721 43.0993 71.1766C44.753 70.2536 46.078 68.955 47.0107 67.4337C47.3599 66.864 48.0811 66.6129 48.7038 66.8553C52.1137 68.183 56.0745 68.0107 59.5188 66.0972Z" fill="url(#paint1_linear_63_243)"/>
</g>
<g filter="url(#filter1_f_63_243)">
<path d="M61.2291 29.4865C64.5882 28.3638 69.6754 30.6364 71.8187 34.5052C73.413 37.3831 73.5742 42.1844 68.8585 46.5892" stroke="url(#paint2_linear_63_243)" stroke-width="1.875"/>
</g>
<path d="M12.2056 18.8714C15.524 12.9076 22.6979 10.4548 28.8891 12.8325C29.6343 13.1187 30.5009 12.7389 30.808 12.002C31.099 11.3041 31.4631 10.6203 31.9056 9.97142C35.0556 5.34642 41.1806 3.69642 46.2306 6.09642C52.2806 8.97142 54.5306 16.2714 51.3306 22.0214C50.8556 22.8714 50.3056 23.6214 49.6556 24.2964C55.9306 28.0214 58.1556 36.0964 54.5556 42.5214C52.3056 46.5714 48.2556 48.9964 43.9806 49.3964C44.2306 51.6714 43.8056 54.0714 42.6056 56.2214C40.7306 59.5964 37.3806 61.6464 33.8056 62.0214C29.1806 62.5214 25.0306 65.1214 22.7556 69.1964C20.2056 73.7714 14.4306 75.3964 9.85558 72.8464C5.28058 70.2964 3.65558 64.5214 6.20558 59.9464C8.48058 55.8964 8.50558 50.9964 6.50558 46.7964C4.95558 43.5464 4.93058 39.6214 6.83058 36.2464C7.80329 34.5036 8.97972 33.0979 10.5089 32.1086C11.1026 31.7246 11.3692 30.9626 11.1203 30.3008C9.76379 26.6952 10.1814 22.515 12.2056 18.8714Z" fill="#457420"/>
<g filter="url(#filter2_f_63_243)">
<path d="M13.6561 19.6484C16.7702 13.9994 23.7963 12.6667 29.6065 14.9189C31.2355 15.5504 31.6357 13.6827 32.5162 12.4608C36.219 7.32216 40.9869 5.77349 45.7261 8.04679C51.4038 10.77 53.6701 18.1763 50.667 23.6227C50.2212 24.4278 49.7051 25.1382 49.0951 25.7776C54.9839 29.306 57.072 36.9547 53.6935 43.0405C51.582 46.8767 47.7812 49.1736 43.7693 49.5525C44.0039 51.7074 43.6051 53.9807 42.4789 56.0172C40.7193 59.214 37.5754 61.1558 34.2204 61.511C29.8801 61.9846 25.9854 64.4473 23.8504 68.3072C21.4574 72.6407 16.0377 74.1799 11.7443 71.7645C7.45082 69.3491 5.92582 63.879 8.31889 59.5455C10.4539 55.7094 10.4774 51.068 8.60043 47.0898C7.14582 44.0114 7.12235 40.2936 8.90543 37.0967C9.81828 35.446 11.2211 34.4527 12.6562 33.5156C13.2134 33.1518 14.2962 31.7206 14.0625 31.0937C12.7895 27.6784 11.7564 23.0996 13.6561 19.6484Z" fill="url(#paint3_linear_63_243)"/>
</g>
<g filter="url(#filter3_f_63_243)">
<path d="M59.3939 56.7844C64.0138 52.124 64.3646 44.792 61.0944 39.2996C60.2423 37.8686 60.6204 36.1234 61.9814 35.1738C62.2964 34.954 62.5815 34.7097 62.8127 34.4284C64.5312 26.875 52.9688 16.0938 45.6596 17.9987C45.6058 18.053 45.5517 18.1111 45.4973 18.1725C44.3888 19.4235 42.5476 19.7841 41.1214 18.9207C35.6642 15.6168 28.3564 15.9181 23.7416 20.5735C21.0516 23.2872 19.6625 27.1074 19.6132 30.7752C19.5926 32.3083 18.5237 33.7453 17.1546 34.411C15.4984 35.2163 14.0434 36.4876 12.8434 37.6981C9.99125 40.5492 9.39975 44.064 10.048 47.7521C17.3224 89.7186 3.55485 65.0987 33.5056 70.3533C36.3335 70.8494 40.3216 70.0983 43.1479 67.2472C44.3202 66.0645 45.4276 64.6916 46.1767 63.2261C46.8364 61.9355 48.1962 60.9889 49.6356 60.9773C53.1747 60.9486 56.6655 59.5369 59.3939 56.7844Z" fill="url(#paint4_linear_63_243)"/>
</g>
<g filter="url(#filter4_f_63_243)">
<path d="M51.0156 16.5624C51.4453 13.0468 48.2031 8.5155 43.9844 7.18749C40.8462 6.19971 36.1094 6.99996 32.7344 12.5" stroke="url(#paint5_linear_63_243)" stroke-width="1.875"/>
</g>
<g filter="url(#filter5_f_63_243)">
<path d="M7.10947 45.5859C5.48447 40.8984 6.52326 39.1016 7.34369 37.6562C7.02035 40.3125 6.82844 41.3135 7.6563 44.7266C8.22852 47.0857 9.80457 50.5446 9.80457 54.2969C9.80457 57.6953 6.60144 61.5625 6.60144 61.5625C6.60144 61.5625 8.04676 59.0234 8.94519 54.2969C8.905 51.5849 7.86475 47.7646 7.10947 45.5859Z" fill="#688555"/>
</g>
<path d="M59.6093 54.9219C64.0637 50.4675 64.4019 43.4599 61.2489 38.2104C60.4273 36.8426 60.7919 35.1747 62.1041 34.267C62.4078 34.057 62.6827 33.8234 62.9056 33.5546C66.4806 29.2796 66.1358 22.989 62.4608 18.789C58.0608 13.764 51.017 13.2016 46.367 17.8516C46.3152 17.9034 46.263 17.9589 46.2105 18.0176C45.1418 19.2134 43.3665 19.558 41.9913 18.7327C36.7297 15.575 29.6837 15.863 25.2342 20.3124C22.6405 22.9062 21.3012 26.5574 21.2537 30.063C21.2338 31.5283 20.2032 32.9017 18.8831 33.538C17.2863 34.3076 15.8834 35.5227 14.7264 36.6797C11.9764 39.4047 11.4061 42.7641 12.0311 46.2891C12.8311 50.8641 11.6734 55.4109 8.39842 58.7109C4.69842 62.4109 4.3024 67.768 8.65558 72.1213C12.3556 75.8213 18.1359 75.4578 21.8359 71.7578C25.1359 68.4578 30.0484 67.0906 34.6484 67.8906C37.375 68.3648 41.2203 67.6469 43.9453 64.9219C45.0756 63.7915 46.1434 62.4793 46.8656 61.0787C47.5017 59.8451 48.8127 58.9404 50.2006 58.9293C53.6129 58.9019 56.9786 57.5526 59.6093 54.9219Z" fill="url(#paint6_linear_63_243)"/>
<g filter="url(#filter6_f_63_243)">
<path d="M57.9558 54.2218C62.1052 50.0724 62.3904 43.1713 59.4532 38.2813C58.2343 36.2519 59.5014 35.1285 60.612 33.7891C63.9423 29.8068 64.0354 24.4753 60.612 20.5628C56.7496 16.1517 50.6666 15.4427 46.5235 20.0782C45.5279 21.1921 42.825 21.2791 41.5441 20.5104C36.6427 17.5689 30.5119 17.574 26.3671 21.7189C23.9509 24.135 22.6614 28.1017 22.6171 31.3673C22.5986 32.7323 21.6386 34.0117 20.4088 34.6044C18.9213 35.3213 17.2236 36.1508 16.1459 37.2286C13.5841 39.767 13.2458 42.9664 13.828 46.2501C14.5732 50.5119 14.5351 55.1291 11.4843 58.2032C8.20297 62.0703 6.96035 66.3354 11.0155 70.3907C14.4622 73.8373 18.6718 72.1485 22.6171 68.9063C25.6912 65.8322 30.4188 65.5574 34.7038 66.3026C37.2438 66.7444 40.8258 66.0756 43.3642 63.5371C44.4171 62.4842 45.2047 60.9243 45.8775 59.6195C46.4701 58.4704 47.6914 57.6277 48.9842 57.6173C52.1629 57.5918 55.5052 56.6724 57.9558 54.2218Z" fill="url(#paint7_linear_63_243)"/>
</g>
<path fill-rule="evenodd" clip-rule="evenodd" d="M34.5673 28.4042C35.3914 28.1482 36.267 28.6088 36.5229 29.4329L39.5055 39.0369L49.7509 28.7915C50.3611 28.1813 51.3504 28.1813 51.9606 28.7915C52.5708 29.4017 52.5708 30.3911 51.9606 31.0012L41.7164 41.2454L51.3432 44.2289C52.1675 44.4844 52.6286 45.3597 52.3732 46.1839C52.1177 47.0082 51.2424 47.4693 50.4181 47.2139L39.2189 43.743L29.5655 53.3964L36.194 55.4541C37.0181 55.71 37.4788 56.5855 37.223 57.4096C36.9671 58.2338 36.0916 58.6945 35.2675 58.4386L27.0685 55.8933L21.6356 61.3262C21.0254 61.9364 20.0361 61.9364 19.4259 61.3262C18.8157 60.7161 18.8157 59.7267 19.4259 59.1165L24.8588 53.6837L22.3135 45.4846C22.0576 44.6604 22.5183 43.7849 23.3425 43.5291C24.1666 43.2732 25.0421 43.7339 25.298 44.5581L27.3557 51.1867L37.0087 41.5338L33.5385 30.3598C33.2826 29.5356 33.7432 28.6601 34.5673 28.4042Z" fill="url(#paint8_linear_63_243)"/>
<path fill-rule="evenodd" clip-rule="evenodd" d="M34.5673 28.4042C35.3914 28.1482 36.267 28.6088 36.5229 29.4329L39.5055 39.0369L49.7509 28.7915C50.3611 28.1813 51.3504 28.1813 51.9606 28.7915C52.5708 29.4017 52.5708 30.3911 51.9606 31.0012L41.7164 41.2454L51.3432 44.2289C52.1675 44.4844 52.6286 45.3597 52.3732 46.1839C52.1177 47.0082 51.2424 47.4693 50.4181 47.2139L39.2189 43.743L29.5655 53.3964L36.194 55.4541C37.0181 55.71 37.4788 56.5855 37.223 57.4096C36.9671 58.2338 36.0916 58.6945 35.2675 58.4386L27.0685 55.8933L21.6356 61.3262C21.0254 61.9364 20.0361 61.9364 19.4259 61.3262C18.8157 60.7161 18.8157 59.7267 19.4259 59.1165L24.8588 53.6837L22.3135 45.4846C22.0576 44.6604 22.5183 43.7849 23.3425 43.5291C24.1666 43.2732 25.0421 43.7339 25.298 44.5581L27.3557 51.1867L37.0087 41.5338L33.5385 30.3598C33.2826 29.5356 33.7432 28.6601 34.5673 28.4042Z" fill="url(#paint9_radial_63_243)"/>
<g filter="url(#filter7_f_63_243)">
<path d="M50.5469 30.1953L41.4062 39.375" stroke="url(#paint10_linear_63_243)" stroke-width="2.5" stroke-linecap="round"/>
</g>
<g filter="url(#filter8_f_63_243)">
<path d="M50.9629 45.6716L38.6039 41.7891" stroke="url(#paint11_linear_63_243)" stroke-width="2.5" stroke-linecap="round"/>
</g>
<g filter="url(#filter9_f_63_243)">
<path d="M23.3687 45.0586L26.2109 54.2804" stroke="url(#paint12_linear_63_243)" stroke-width="1.875" stroke-linecap="round"/>
</g>
<g filter="url(#filter10_f_63_243)">
<path d="M35.8686 57.057L26.6314 54.2655" stroke="url(#paint13_linear_63_243)" stroke-width="1.875" stroke-linecap="round"/>
</g>
<g filter="url(#filter11_f_63_243)">
<path d="M20.4297 60.2734L39.6875 41.25" stroke="url(#paint14_linear_63_243)" stroke-width="2.5" stroke-linecap="round"/>
</g>
<g filter="url(#filter12_f_63_243)">
<path d="M51.9556 16.1762C58.8305 14.6137 64.7682 18.9888 63.7133 26.5278C62.3554 19.52 59.1505 16.8247 51.9556 16.1762Z" fill="#BFEE84"/>
</g>
<g filter="url(#filter13_f_63_243)">
<path d="M60.7423 50.8593C60.7423 50.8593 62.5782 41.4844 59.0625 36.4062C57.9689 35.8594 56.7387 36.3843 57.4218 37.1486C61.367 41.5627 60.7423 50.8593 60.7423 50.8593Z" fill="url(#paint15_linear_63_243)"/>
</g>
<g filter="url(#filter14_f_63_243)">
<path d="M60.7423 50.8593C60.7423 50.8593 62.5782 41.4844 59.0625 36.4062C57.9689 35.8594 56.7387 36.3843 57.4218 37.1486C61.367 41.5627 60.7423 50.8593 60.7423 50.8593Z" fill="url(#paint16_linear_63_243)"/>
</g>
<g filter="url(#filter15_f_63_243)">
<path d="M30.0208 18.3108C30.0208 18.3108 39.5115 17.2218 44.2958 21.1279C44.7545 22.2613 44.1339 23.4462 43.426 22.7048C39.3376 18.423 30.0208 18.3108 30.0208 18.3108Z" fill="url(#paint17_linear_63_243)"/>
</g>
<g filter="url(#filter16_f_63_243)">
<path d="M30.0205 18.3108C30.0205 18.3108 39.5112 17.2218 44.2955 21.1279C44.7542 22.2613 44.1337 23.4462 43.4258 22.7048C39.3374 18.423 30.0205 18.3108 30.0205 18.3108Z" fill="url(#paint18_linear_63_243)"/>
</g>
<g filter="url(#filter17_f_63_243)">
<path d="M27.9186 19.9006C27.9186 19.9006 21.8271 26.9267 22.1017 32.9833C22.7116 33.9776 23.7452 34.2417 23.5344 33.2678C22.2001 27.1041 27.9186 19.9006 27.9186 19.9006Z" fill="url(#paint19_linear_63_243)"/>
</g>
<g filter="url(#filter18_f_63_243)">
<path d="M59.922 52.0314C59.922 52.0314 55.5863 58.9984 48.9619 58.1639C47.9357 57.4991 47.4603 56.1899 48.4765 56.0548C54.6483 55.2344 59.922 52.0314 59.922 52.0314Z" fill="url(#paint20_linear_63_243)"/>
</g>
<g filter="url(#filter19_f_63_243)">
<path d="M14.4532 40.1562C13.5156 42.6562 14.0081 45.8908 14.4532 49.0625C15.0781 53.5156 12.1615 56.6927 10.9375 58.4375C9.0365 60.5729 5.94527 66.4453 9.25777 70.5078C12.5703 74.5703 17.5521 72.6042 18.8282 71.7188" stroke="url(#paint21_linear_63_243)" stroke-width="1.25"/>
</g>
<g filter="url(#filter20_f_63_243)">
<path d="M20.3517 58.9648C19.948 59.3164 19.0323 60.1674 19.8634 60.957C20.6445 61.6992 21.2694 60.957 21.8361 60.4102" stroke="url(#paint22_radial_63_243)" stroke-width="0.25"/>
</g>
<g filter="url(#filter21_f_63_243)">
<path d="M26.5821 51.7968L24.4532 44.7265C24.3881 44.5311 24.0743 44.0429 23.418 44.1992C22.5977 44.3945 22.7344 45.1367 22.8125 45.4492C22.875 45.6992 24.4923 50.8462 25.3126 53.4764" stroke="url(#paint23_linear_63_243)" stroke-width="0.25"/>
</g>
<g filter="url(#filter22_f_63_243)">
<path d="M39.0235 39.5899L35.8692 29.6121C35.8041 29.4168 35.4903 28.9285 34.834 29.0848C34.0137 29.2801 34.1504 30.0223 34.2285 30.3348C34.291 30.5848 36.6993 38.5808 37.5196 41.211" stroke="url(#paint24_linear_63_243)" stroke-width="0.25"/>
</g>
<g filter="url(#filter23_f_63_243)">
<path d="M41.1743 41.5747L51.114 44.8473C51.3085 44.9147 51.793 45.2343 51.6289 45.8887C51.4239 46.7066 50.6834 46.5611 50.3718 46.4793C50.1226 46.4138 42.1558 43.9108 39.5355 43.0593" stroke="url(#paint25_linear_63_243)" stroke-width="0.25"/>
</g>
<g filter="url(#filter24_f_63_243)">
<path d="M28.9173 54.1094L35.9799 56.2643C36.1749 56.3301 36.662 56.6457 36.5033 57.3013C36.305 58.1209 35.5633 57.9815 35.2511 57.9023C35.0013 57.8389 29.8603 56.2028 27.2331 55.3728" stroke="url(#paint26_linear_63_243)" stroke-width="0.25"/>
</g>
<g filter="url(#filter25_f_63_243)">
<path d="M30.7031 15.5469L30.1562 13.6718C20 10.9376 16.875 15.5469 16.875 15.5469C23.5938 13.6719 27.6562 14.8438 30.7031 15.5469Z" fill="url(#paint27_linear_63_243)"/>
</g>
<g filter="url(#filter26_f_63_243)">
<path d="M63.9012 49.9014L65.7868 50.4107C68.7235 60.5103 64.1775 63.7268 64.1775 63.7268C65.9179 56.9719 64.665 52.9336 63.9012 49.9014Z" fill="url(#paint28_linear_63_243)"/>
</g>
<g filter="url(#filter27_f_63_243)">
<path d="M13.5889 31.4801L12.036 31.48C9.56962 23.1288 13.3596 19.4531 13.3596 19.4531C11.0286 23.0509 12.6609 29.2188 13.5889 31.4801Z" fill="url(#paint29_linear_63_243)"/>
</g>
<defs>
<filter id="filter0_f_63_243" x="6.1228" y="23.1959" width="67.7117" height="50.9606" filterUnits="userSpaceOnUse" color-interpolation-filters="sRGB">
<feFlood flood-opacity="0" result="BackgroundImageFix"/>
<feBlend mode="normal" in="SourceGraphic" in2="BackgroundImageFix" result="shape"/>
<feGaussianBlur stdDeviation="0.625" result="effect1_foregroundBlur_63_243"/>
</filter>
<filter id="filter1_f_63_243" x="58.4319" y="25.7617" width="17.8323" height="24.0126" filterUnits="userSpaceOnUse" color-interpolation-filters="sRGB">
<feFlood flood-opacity="0" result="BackgroundImageFix"/>
<feBlend mode="normal" in="SourceGraphic" in2="BackgroundImageFix" result="shape"/>
<feGaussianBlur stdDeviation="1.25" result="effect1_foregroundBlur_63_243"/>
</filter>
<filter id="filter2_f_63_243" x="5.9375" y="5.77649" width="50.625" height="68.3799" filterUnits="userSpaceOnUse" color-interpolation-filters="sRGB">
<feFlood flood-opacity="0" result="BackgroundImageFix"/>
<feBlend mode="normal" in="SourceGraphic" in2="BackgroundImageFix" result="shape"/>
<feGaussianBlur stdDeviation="0.625" result="effect1_foregroundBlur_63_243"/>
</filter>
<filter id="filter3_f_63_243" x="7.30957" y="14.2172" width="58.4436" height="61.1126" filterUnits="userSpaceOnUse" color-interpolation-filters="sRGB">
<feFlood flood-opacity="0" result="BackgroundImageFix"/>
<feBlend mode="normal" in="SourceGraphic" in2="BackgroundImageFix" result="shape"/>
<feGaussianBlur stdDeviation="1.25" result="effect1_foregroundBlur_63_243"/>
</filter>
<filter id="filter4_f_63_243" x="29.4353" y="3.38733" width="25.0562" height="15.7888" filterUnits="userSpaceOnUse" color-interpolation-filters="sRGB">
<feFlood flood-opacity="0" result="BackgroundImageFix"/>
<feBlend mode="normal" in="SourceGraphic" in2="BackgroundImageFix" result="shape"/>
<feGaussianBlur stdDeviation="1.25" result="effect1_foregroundBlur_63_243"/>
</filter>
<filter id="filter5_f_63_243" x="5.00269" y="36.4062" width="6.052" height="26.4062" filterUnits="userSpaceOnUse" color-interpolation-filters="sRGB">
<feFlood flood-opacity="0" result="BackgroundImageFix"/>
<feBlend mode="normal" in="SourceGraphic" in2="BackgroundImageFix" result="shape"/>
<feGaussianBlur stdDeviation="0.625" result="effect1_foregroundBlur_63_243"/>
</filter>
<filter id="filter6_f_63_243" x="7.83691" y="16.2883" width="55.9329" height="56.6292" filterUnits="userSpaceOnUse" color-interpolation-filters="sRGB">
<feFlood flood-opacity="0" result="BackgroundImageFix"/>
<feBlend mode="normal" in="SourceGraphic" in2="BackgroundImageFix" result="shape"/>
<feGaussianBlur stdDeviation="0.3125" result="effect1_foregroundBlur_63_243"/>
</filter>
<filter id="filter7_f_63_243" x="39.5312" y="28.3203" width="12.8906" height="12.9297" filterUnits="userSpaceOnUse" color-interpolation-filters="sRGB">
<feFlood flood-opacity="0" result="BackgroundImageFix"/>
<feBlend mode="normal" in="SourceGraphic" in2="BackgroundImageFix" result="shape"/>
<feGaussianBlur stdDeviation="0.3125" result="effect1_foregroundBlur_63_243"/>
</filter>
<filter id="filter8_f_63_243" x="36.7285" y="39.9138" width="16.1096" height="7.63318" filterUnits="userSpaceOnUse" color-interpolation-filters="sRGB">
<feFlood flood-opacity="0" result="BackgroundImageFix"/>
<feBlend mode="normal" in="SourceGraphic" in2="BackgroundImageFix" result="shape"/>
<feGaussianBlur stdDeviation="0.3125" result="effect1_foregroundBlur_63_243"/>
</filter>
<filter id="filter9_f_63_243" x="21.8059" y="43.4958" width="5.96777" height="12.3473" filterUnits="userSpaceOnUse" color-interpolation-filters="sRGB">
<feFlood flood-opacity="0" result="BackgroundImageFix"/>
<feBlend mode="normal" in="SourceGraphic" in2="BackgroundImageFix" result="shape"/>
<feGaussianBlur stdDeviation="0.3125" result="effect1_foregroundBlur_63_243"/>
</filter>
<filter id="filter10_f_63_243" x="25.0686" y="52.7028" width="12.3628" height="5.91699" filterUnits="userSpaceOnUse" color-interpolation-filters="sRGB">
<feFlood flood-opacity="0" result="BackgroundImageFix"/>
<feBlend mode="normal" in="SourceGraphic" in2="BackgroundImageFix" result="shape"/>
<feGaussianBlur stdDeviation="0.3125" result="effect1_foregroundBlur_63_243"/>
</filter>
<filter id="filter11_f_63_243" x="18.5547" y="39.375" width="23.0078" height="22.7734" filterUnits="userSpaceOnUse" color-interpolation-filters="sRGB">
<feFlood flood-opacity="0" result="BackgroundImageFix"/>
<feBlend mode="normal" in="SourceGraphic" in2="BackgroundImageFix" result="shape"/>
<feGaussianBlur stdDeviation="0.3125" result="effect1_foregroundBlur_63_243"/>
</filter>
<filter id="filter12_f_63_243" x="50.7056" y="14.6112" width="14.3799" height="13.1666" filterUnits="userSpaceOnUse" color-interpolation-filters="sRGB">
<feFlood flood-opacity="0" result="BackgroundImageFix"/>
<feBlend mode="normal" in="SourceGraphic" in2="BackgroundImageFix" result="shape"/>
<feGaussianBlur stdDeviation="0.625" result="effect1_foregroundBlur_63_243"/>
</filter>
<filter id="filter13_f_63_243" x="55.9751" y="34.9305" width="6.49634" height="17.1787" filterUnits="userSpaceOnUse" color-interpolation-filters="sRGB">
<feFlood flood-opacity="0" result="BackgroundImageFix"/>
<feBlend mode="normal" in="SourceGraphic" in2="BackgroundImageFix" result="shape"/>
<feGaussianBlur stdDeviation="0.625" result="effect1_foregroundBlur_63_243"/>
</filter>
<filter id="filter14_f_63_243" x="55.9751" y="34.9305" width="6.49634" height="17.1787" filterUnits="userSpaceOnUse" color-interpolation-filters="sRGB">
<feFlood flood-opacity="0" result="BackgroundImageFix"/>
<feBlend mode="normal" in="SourceGraphic" in2="BackgroundImageFix" result="shape"/>
<feGaussianBlur stdDeviation="0.625" result="effect1_foregroundBlur_63_243"/>
</filter>
<filter id="filter15_f_63_243" x="28.7708" y="16.9213" width="16.9326" height="7.26434" filterUnits="userSpaceOnUse" color-interpolation-filters="sRGB">
<feFlood flood-opacity="0" result="BackgroundImageFix"/>
<feBlend mode="normal" in="SourceGraphic" in2="BackgroundImageFix" result="shape"/>
<feGaussianBlur stdDeviation="0.625" result="effect1_foregroundBlur_63_243"/>
</filter>
<filter id="filter16_f_63_243" x="28.7705" y="16.9213" width="16.9326" height="7.26434" filterUnits="userSpaceOnUse" color-interpolation-filters="sRGB">
<feFlood flood-opacity="0" result="BackgroundImageFix"/>
<feBlend mode="normal" in="SourceGraphic" in2="BackgroundImageFix" result="shape"/>
<feGaussianBlur stdDeviation="0.625" result="effect1_foregroundBlur_63_243"/>
</filter>
<filter id="filter17_f_63_243" x="20.8428" y="18.6506" width="8.32568" height="16.4772" filterUnits="userSpaceOnUse" color-interpolation-filters="sRGB">
<feFlood flood-opacity="0" result="BackgroundImageFix"/>
<feBlend mode="normal" in="SourceGraphic" in2="BackgroundImageFix" result="shape"/>
<feGaussianBlur stdDeviation="0.625" result="effect1_foregroundBlur_63_243"/>
</filter>
<filter id="filter18_f_63_243" x="46.6624" y="50.7814" width="14.5095" height="8.7019" filterUnits="userSpaceOnUse" color-interpolation-filters="sRGB">
<feFlood flood-opacity="0" result="BackgroundImageFix"/>
<feBlend mode="normal" in="SourceGraphic" in2="BackgroundImageFix" result="shape"/>
<feGaussianBlur stdDeviation="0.625" result="effect1_foregroundBlur_63_243"/>
</filter>
<filter id="filter19_f_63_243" x="5.92163" y="38.6868" width="14.5129" height="36.1674" filterUnits="userSpaceOnUse" color-interpolation-filters="sRGB">
<feFlood flood-opacity="0" result="BackgroundImageFix"/>
<feBlend mode="normal" in="SourceGraphic" in2="BackgroundImageFix" result="shape"/>
<feGaussianBlur stdDeviation="0.625" result="effect1_foregroundBlur_63_243"/>
</filter>
<filter id="filter20_f_63_243" x="19.1509" y="58.6206" width="3.02197" height="3.02399" filterUnits="userSpaceOnUse" color-interpolation-filters="sRGB">
<feFlood flood-opacity="0" result="BackgroundImageFix"/>
<feBlend mode="normal" in="SourceGraphic" in2="BackgroundImageFix" result="shape"/>
<feGaussianBlur stdDeviation="0.125" result="effect1_foregroundBlur_63_243"/>
</filter>
<filter id="filter21_f_63_243" x="22.3774" y="43.7938" width="4.57446" height="9.96985" filterUnits="userSpaceOnUse" color-interpolation-filters="sRGB">
<feFlood flood-opacity="0" result="BackgroundImageFix"/>
<feBlend mode="normal" in="SourceGraphic" in2="BackgroundImageFix" result="shape"/>
<feGaussianBlur stdDeviation="0.125" result="effect1_foregroundBlur_63_243"/>
</filter>
<filter id="filter22_f_63_243" x="33.7935" y="28.6794" width="5.59912" height="12.8187" filterUnits="userSpaceOnUse" color-interpolation-filters="sRGB">
<feFlood flood-opacity="0" result="BackgroundImageFix"/>
<feBlend mode="normal" in="SourceGraphic" in2="BackgroundImageFix" result="shape"/>
<feGaussianBlur stdDeviation="0.125" result="effect1_foregroundBlur_63_243"/>
</filter>
<filter id="filter23_f_63_243" x="39.2468" y="41.206" width="12.7905" height="5.71356" filterUnits="userSpaceOnUse" color-interpolation-filters="sRGB">
<feFlood flood-opacity="0" result="BackgroundImageFix"/>
<feBlend mode="normal" in="SourceGraphic" in2="BackgroundImageFix" result="shape"/>
<feGaussianBlur stdDeviation="0.125" result="effect1_foregroundBlur_63_243"/>
</filter>
<filter id="filter24_f_63_243" x="26.9453" y="53.7399" width="9.96436" height="4.59906" filterUnits="userSpaceOnUse" color-interpolation-filters="sRGB">
<feFlood flood-opacity="0" result="BackgroundImageFix"/>
<feBlend mode="normal" in="SourceGraphic" in2="BackgroundImageFix" result="shape"/>
<feGaussianBlur stdDeviation="0.125" result="effect1_foregroundBlur_63_243"/>
</filter>
<filter id="filter25_f_63_243" x="15.625" y="11.5552" width="16.3281" height="5.24176" filterUnits="userSpaceOnUse" color-interpolation-filters="sRGB">
<feFlood flood-opacity="0" result="BackgroundImageFix"/>
<feBlend mode="normal" in="SourceGraphic" in2="BackgroundImageFix" result="shape"/>
<feGaussianBlur stdDeviation="0.625" result="effect1_foregroundBlur_63_243"/>
</filter>
<filter id="filter26_f_63_243" x="62.6511" y="48.6514" width="5.37354" height="16.3254" filterUnits="userSpaceOnUse" color-interpolation-filters="sRGB">
<feFlood flood-opacity="0" result="BackgroundImageFix"/>
<feBlend mode="normal" in="SourceGraphic" in2="BackgroundImageFix" result="shape"/>
<feGaussianBlur stdDeviation="0.625" result="effect1_foregroundBlur_63_243"/>
</filter>
<filter id="filter27_f_63_243" x="9.95215" y="18.2031" width="4.88672" height="14.527" filterUnits="userSpaceOnUse" color-interpolation-filters="sRGB">
<feFlood flood-opacity="0" result="BackgroundImageFix"/>
<feBlend mode="normal" in="SourceGraphic" in2="BackgroundImageFix" result="shape"/>
<feGaussianBlur stdDeviation="0.625" result="effect1_foregroundBlur_63_243"/>
</filter>
<linearGradient id="paint0_linear_63_243" x1="70.6251" y1="35.4688" x2="27.1876" y2="72.5" gradientUnits="userSpaceOnUse">
<stop stop-color="#4B7916"/>
<stop offset="0.16529" stop-color="#4C4954"/>
<stop offset="0.242505" stop-color="#4C771D"/>
<stop offset="0.464246" stop-color="#524C55"/>
<stop offset="0.575367" stop-color="#605A62"/>
<stop offset="1" stop-color="#574D55"/>
</linearGradient>
<linearGradient id="paint1_linear_63_243" x1="65.1563" y1="27.5" x2="30.6251" y2="70.9375" gradientUnits="userSpaceOnUse">
<stop stop-color="#5A853F"/>
<stop offset="0.720341" stop-color="#5B7444"/>
<stop offset="1" stop-color="#51534B"/>
</linearGradient>
<linearGradient id="paint2_linear_63_243" x1="64.5974" y1="28.8005" x2="71.9331" y2="44.4474" gradientUnits="userSpaceOnUse">
<stop stop-color="#80AE64"/>
<stop offset="0.509923" stop-color="#84B05D"/>
<stop offset="1" stop-color="#8BB34F" stop-opacity="0"/>
</linearGradient>
<linearGradient id="paint3_linear_63_243" x1="42.0312" y1="11.4062" x2="7.1875" y2="49.8437" gradientUnits="userSpaceOnUse">
<stop stop-color="#5A873E"/>
<stop offset="0.36369" stop-color="#528034"/>
<stop offset="0.578004" stop-color="#5D8541"/>
<stop offset="1" stop-color="#4C6E39"/>
</linearGradient>
<linearGradient id="paint4_linear_63_243" x1="36.5313" y1="18.9062" x2="40.1563" y2="72.8298" gradientUnits="userSpaceOnUse">
<stop stop-color="#2D5B18"/>
<stop offset="0.513713" stop-color="#436C30"/>
<stop offset="0.907398" stop-color="#374A2A"/>
</linearGradient>
<linearGradient id="paint5_linear_63_243" x1="51.0156" y1="13.125" x2="34.2194" y2="9.0597" gradientUnits="userSpaceOnUse">
<stop stop-color="#80AE64"/>
<stop offset="0.509923" stop-color="#84B05D"/>
<stop offset="1" stop-color="#8BB34F" stop-opacity="0"/>
</linearGradient>
<linearGradient id="paint6_linear_63_243" x1="10.1562" y1="65.9375" x2="57.4999" y2="18.5937" gradientUnits="userSpaceOnUse">
<stop stop-color="#88AD37"/>
<stop offset="0.419142" stop-color="#70A124"/>
<stop offset="0.536304" stop-color="#71A520" stop-opacity="0.798295"/>
<stop offset="0.778878" stop-color="#89BF21"/>
<stop offset="1" stop-color="#89C031"/>
</linearGradient>
<linearGradient id="paint7_linear_63_243" x1="9.375" y1="66.7188" x2="60.3125" y2="20.3125" gradientUnits="userSpaceOnUse">
<stop stop-color="#8FB541"/>
<stop offset="0.169365" stop-color="#86AA3C"/>
<stop offset="0.357729" stop-color="#8DB93F"/>
<stop offset="0.534807" stop-color="#81A738"/>
<stop offset="0.711736" stop-color="#8CBC3D"/>
<stop offset="0.884418" stop-color="#82B42E"/>
<stop offset="1" stop-color="#83B835"/>
</linearGradient>
<linearGradient id="paint8_linear_63_243" x1="27.3438" y1="34.2969" x2="40.8594" y2="53.4375" gradientUnits="userSpaceOnUse">
<stop stop-color="#457328"/>
<stop offset="1" stop-color="#46772A"/>
</linearGradient>
<radialGradient id="paint9_radial_63_243" cx="0" cy="0" r="1" gradientUnits="userSpaceOnUse" gradientTransform="translate(37.1876 42.3438) rotate(100.814) scale(14.1577 14.1682)">
<stop stop-color="#3E5D2E"/>
<stop offset="1" stop-color="#40602F" stop-opacity="0"/>
</radialGradient>
<linearGradient id="paint10_linear_63_243" x1="49.6094" y1="29.9219" x2="38.9062" y2="40.625" gradientUnits="userSpaceOnUse">
<stop offset="0.310502" stop-color="#5C8141"/>
<stop offset="1" stop-color="#5C8142" stop-opacity="0"/>
</linearGradient>
<linearGradient id="paint11_linear_63_243" x1="50.7736" y1="44.7136" x2="39.2393" y2="41.0631" gradientUnits="userSpaceOnUse">
<stop offset="0.434226" stop-color="#4D6E3C"/>
<stop offset="1" stop-color="#4D6D3C" stop-opacity="0"/>
</linearGradient>
<linearGradient id="paint12_linear_63_243" x1="22.6903" y1="45.7611" x2="26.2804" y2="57.3143" gradientUnits="userSpaceOnUse">
<stop offset="0.596596" stop-color="#5C8142"/>
<stop offset="1" stop-color="#4C6D3A" stop-opacity="0"/>
</linearGradient>
<linearGradient id="paint13_linear_63_243" x1="35.1699" y1="57.7393" x2="23.5972" y2="54.2128" gradientUnits="userSpaceOnUse">
<stop offset="0.596596" stop-color="#5C8142"/>
<stop offset="1" stop-color="#4C6D3A" stop-opacity="0"/>
</linearGradient>
<linearGradient id="paint14_linear_63_243" x1="20.7031" y1="60.2344" x2="39.6904" y2="41.2529" gradientUnits="userSpaceOnUse">
<stop offset="0.6893" stop-color="#5C8142"/>
<stop offset="1" stop-color="#5C8142" stop-opacity="0"/>
</linearGradient>
<linearGradient id="paint15_linear_63_243" x1="58.3594" y1="36.8054" x2="60.1563" y2="50.8592" gradientUnits="userSpaceOnUse">
<stop stop-color="#B2DE74" stop-opacity="0"/>
<stop offset="0.232995" stop-color="#B2DE74"/>
<stop offset="1" stop-color="#B2DD74" stop-opacity="0"/>
</linearGradient>
<linearGradient id="paint16_linear_63_243" x1="58.3594" y1="36.8054" x2="60.1563" y2="50.8592" gradientUnits="userSpaceOnUse">
<stop stop-color="#B2DE74" stop-opacity="0"/>
<stop offset="0.232995" stop-color="#B2DE74"/>
<stop offset="1" stop-color="#B2DD74" stop-opacity="0"/>
</linearGradient>
<linearGradient id="paint17_linear_63_243" x1="43.8423" y1="21.7972" x2="29.9745" y2="18.895" gradientUnits="userSpaceOnUse">
<stop stop-color="#B2DE74" stop-opacity="0"/>
<stop offset="0.232995" stop-color="#B2DE74"/>
<stop offset="1" stop-color="#B2DD74" stop-opacity="0"/>
</linearGradient>
<linearGradient id="paint18_linear_63_243" x1="43.842" y1="21.7972" x2="29.9742" y2="18.895" gradientUnits="userSpaceOnUse">
<stop stop-color="#B2DE74" stop-opacity="0"/>
<stop offset="0.232995" stop-color="#B2DE74"/>
<stop offset="1" stop-color="#B2DD74" stop-opacity="0"/>
</linearGradient>
<linearGradient id="paint19_linear_63_243" x1="22.7158" y1="33.1477" x2="28.1981" y2="20.0987" gradientUnits="userSpaceOnUse">
<stop stop-color="#8CB750"/>
<stop offset="0.232995" stop-color="#94C155"/>
<stop offset="1" stop-color="#ABD46F" stop-opacity="0"/>
</linearGradient>
<linearGradient id="paint20_linear_63_243" x1="48.9487" y1="57.3554" x2="61.97" y2="51.7711" gradientUnits="userSpaceOnUse">
<stop offset="0.580277" stop-color="#96AA61"/>
<stop offset="1" stop-color="#819252" stop-opacity="0"/>
</linearGradient>
<linearGradient id="paint21_linear_63_243" x1="15.547" y1="40.625" x2="3.51575" y2="63.3594" gradientUnits="userSpaceOnUse">
<stop stop-color="#8BB34F" stop-opacity="0"/>
<stop offset="0.289402" stop-color="#94C051"/>
<stop offset="0.708202" stop-color="#94BE55"/>
<stop offset="1" stop-color="#8BB34F" stop-opacity="0"/>
</linearGradient>
<radialGradient id="paint22_radial_63_243" cx="0" cy="0" r="1" gradientUnits="userSpaceOnUse" gradientTransform="translate(19.9025 60.8789) rotate(-50.6176) scale(1.69303 1.32121)">
<stop stop-color="#80AE64"/>
<stop offset="1" stop-color="#8BB34F" stop-opacity="0"/>
</radialGradient>
<linearGradient id="paint23_linear_63_243" x1="23.6524" y1="47.6758" x2="24.6673" y2="47.3047" gradientUnits="userSpaceOnUse">
<stop stop-color="#6E9253"/>
<stop offset="1" stop-color="#436C2F"/>
</linearGradient>
<linearGradient id="paint24_linear_63_243" x1="35.0001" y1="32.461" x2="36.2891" y2="32.0899" gradientUnits="userSpaceOnUse">
<stop stop-color="#597843"/>
<stop offset="1" stop-color="#456D31"/>
</linearGradient>
<linearGradient id="paint25_linear_63_243" x1="48.255" y1="45.6826" x2="48.6413" y2="44.398" gradientUnits="userSpaceOnUse">
<stop stop-color="#597843"/>
<stop offset="1" stop-color="#456D31"/>
</linearGradient>
<linearGradient id="paint26_linear_63_243" x1="33.0276" y1="57.0542" x2="33.4025" y2="56.0407" gradientUnits="userSpaceOnUse">
<stop stop-color="#6E9253"/>
<stop offset="1" stop-color="#436C2F"/>
</linearGradient>
<linearGradient id="paint27_linear_63_243" x1="28.9844" y1="14.4058" x2="19.2187" y2="14.9219" gradientUnits="userSpaceOnUse">
<stop stop-color="#77A458"/>
<stop offset="1" stop-color="#77A458" stop-opacity="0"/>
</linearGradient>
<linearGradient id="paint28_linear_63_243" x1="65.0764" y1="51.597" x2="64.7556" y2="61.371" gradientUnits="userSpaceOnUse">
<stop stop-color="#77A458"/>
<stop offset="1" stop-color="#77A458" stop-opacity="0"/>
</linearGradient>
<linearGradient id="paint29_linear_63_243" x1="12.6104" y1="30.0803" x2="12.8908" y2="20.0781" gradientUnits="userSpaceOnUse">
<stop offset="0.499816" stop-color="#688E4F"/>
<stop offset="1" stop-color="#77A458" stop-opacity="0"/>
</linearGradient>
</defs>
</svg>
