<svg width="163" height="460" viewBox="0 0 163 460" fill="none" xmlns="http://www.w3.org/2000/svg">
<path d="M-47.8363 450.997C-27.3548 407.316 -3.58621 365.315 18.6653 322.754C39.6525 282.433 62.6625 243.232 79.3512 200.391C83.9026 188.91 87.9483 176.87 90.9826 164.829C94.0169 152.229 95.0283 139.069 99.0741 126.748C98.3155 127.028 97.8098 127.588 97.0512 127.868C105.143 130.949 112.223 135.989 120.567 138.229C120.061 137.669 119.808 137.109 119.303 136.549C119.303 146.629 116.268 156.709 113.234 166.23C109.947 176.59 105.901 186.39 102.361 196.47C98.3155 207.391 95.2812 218.871 90.9826 229.791C86.684 241.272 81.6269 252.472 76.3168 263.392C65.1911 286.073 52.2954 307.913 40.1582 330.034C27.5153 352.715 14.8724 375.115 1.47095 396.956C-6.11478 409.276 -13.9534 421.597 -22.0448 433.637C-25.8377 439.237 -29.8834 444.837 -33.9291 450.437C-35.1934 452.117 -36.7106 454.358 -38.4806 455.478C-41.5149 457.438 -43.7906 453.797 -45.3077 451.557C-46.572 449.597 -49.1006 451.557 -48.0892 453.237C-46.0663 456.318 -43.2849 460.238 -39.2392 459.398C-35.6991 458.558 -33.4234 454.918 -31.4006 452.117C-23.8148 441.757 -16.482 431.117 -9.40194 420.197C5.51667 397.236 19.4238 373.435 32.8253 349.635C46.2268 325.834 59.8811 302.313 72.524 278.233C84.4083 255.272 94.7755 231.471 102.614 206.551C106.154 194.79 110.958 183.59 114.751 172.11C118.544 160.909 122.337 148.869 122.59 136.829C122.59 135.989 122.084 135.429 121.326 135.149C112.981 133.189 105.648 127.869 97.8098 124.788C97.0512 124.508 96.0398 125.068 95.7869 125.908C92.2469 136.549 90.9826 148.029 88.7069 158.949C86.4312 170.15 82.6383 181.07 78.8454 191.71C71.0068 213.271 61.1454 234.271 50.7782 254.432C29.791 295.593 7.53954 336.194 -14.2062 377.075C-26.8491 400.876 -39.492 424.957 -50.8706 449.317C-51.6292 451.277 -48.8477 453.237 -47.8363 450.997Z" fill="#E9EBEA"/>
<path d="M99.8329 127.308C99.0743 112.468 102.867 97.6276 108.936 84.1872C108.177 84.1872 107.166 84.4672 106.407 84.4672C108.683 87.2673 109.442 91.1874 109.947 94.5475C110.706 99.0276 110.959 103.788 110.959 108.548C110.959 116.668 110.2 124.508 110.2 132.629C110.2 134.869 113.234 134.869 113.234 132.629C113.234 123.948 113.993 115.268 113.993 106.588C113.74 98.4676 113.74 88.3873 108.683 81.9472C107.924 81.1071 106.66 81.3871 106.154 82.2271C100.086 95.9475 95.7872 111.348 96.5458 127.028C96.7986 129.548 99.8329 129.548 99.8329 127.308Z" fill="#E9EBEA"/>
<path d="M113.235 133.468C115.258 125.908 118.04 118.628 121.833 111.628C125.12 105.468 129.418 98.1875 135.74 95.3874C134.981 95.1074 134.476 94.5473 133.717 94.2673C134.476 97.6274 134.223 101.268 133.717 104.628C133.211 109.108 132.2 113.588 131.188 117.788C129.924 121.988 128.66 126.188 126.637 130.108C125.373 132.628 123.35 135.988 120.821 137.109C119.051 137.949 119.81 141.309 121.58 140.469C128.66 137.389 131.947 127.028 133.97 119.748C135.487 114.988 136.498 109.948 137.004 104.908C137.51 100.988 137.763 97.0674 136.751 93.1473C136.498 92.3073 135.487 91.4673 134.728 92.0273C127.901 95.1074 123.097 102.108 119.557 108.828C115.511 116.108 112.224 124.228 110.201 132.628C109.695 134.588 112.73 135.428 113.235 133.468Z" fill="#E9EBEA"/>
<path d="M112.982 90.9076C114.499 87.8275 116.016 84.7474 117.786 81.6673C119.556 78.5873 121.579 75.2272 124.108 72.9871C125.119 72.1471 126.131 71.5871 126.889 71.8671C126.636 71.8671 127.395 72.1471 127.395 71.8671L127.901 72.1471C128.154 72.4271 128.406 72.7071 128.659 72.9871C128.659 72.9871 128.912 73.5471 128.912 73.2671C129.418 74.6671 129.418 76.0672 129.418 77.7473C129.418 79.9873 129.165 81.9474 128.912 84.1874C128.406 88.6676 127.648 92.8677 127.648 97.3478C127.648 99.5879 130.682 99.5879 130.682 97.3478C130.682 93.1477 131.441 88.9476 131.946 84.7474C132.199 82.5074 132.452 79.9873 132.452 77.7473C132.452 76.0672 132.452 74.1071 131.694 72.4271C130.429 68.787 126.889 67.667 123.855 69.067C120.568 70.747 118.292 74.3871 116.269 77.4672C113.993 81.1073 111.971 85.0275 109.948 88.9476C109.189 90.9076 111.971 92.8677 112.982 90.9076Z" fill="#E9EBEA"/>
<path d="M109.947 82.5074C109.947 71.307 116.016 59.8268 123.096 51.9865C122.337 51.9865 121.579 51.9865 120.82 51.9865C124.866 55.6266 125.372 61.2268 125.372 66.5469C125.372 68.787 128.659 68.787 128.406 66.5469C128.406 60.3868 127.394 53.6666 122.843 49.4664C122.084 48.9064 121.326 48.6264 120.567 49.4664C112.982 57.8667 106.66 70.187 106.66 82.5074C106.66 84.7474 109.947 84.7474 109.947 82.5074Z" fill="#E9EBEA"/>
<path d="M129.165 70.1872C133.211 63.747 138.015 57.5868 143.831 53.1067C143.072 52.8267 142.314 52.5467 141.555 51.9867C143.072 58.7069 142.566 65.987 141.555 72.7072C140.544 79.1474 139.026 86.4276 135.234 91.4677C133.969 93.1478 136.245 95.6679 137.509 93.9878C141.808 88.3877 143.831 80.8274 144.842 73.8272C145.854 66.547 146.359 58.7068 144.842 51.4266C144.589 50.3066 143.325 49.7466 142.566 50.3066C136.245 55.3468 131.188 61.7869 126.889 68.7871C125.119 70.4672 127.901 72.1472 129.165 70.1872Z" fill="#E9EBEA"/>
<path d="M126.636 52.547C130.428 45.8268 134.727 39.1066 141.301 35.4665C140.543 34.9065 139.784 34.3465 139.026 34.0664C139.026 41.3466 138.267 48.9069 136.497 55.9071C135.991 58.1471 139.026 58.9872 139.531 56.7471C141.301 49.1869 142.06 41.6267 142.06 33.7865C142.06 32.3864 140.796 31.5464 139.784 32.3864C132.704 36.3065 128.153 43.5867 124.107 50.8669C122.59 52.827 125.371 54.507 126.636 52.547Z" fill="#E9EBEA"/>
<path d="M98.8199 128.149C97.5556 125.069 97.3027 121.149 97.0499 117.789C96.797 112.748 96.5441 107.708 96.797 102.388C97.0499 97.6279 97.3027 92.8678 98.3141 88.1077C98.8199 85.5876 99.5784 81.6675 101.096 79.9875H101.348C101.854 79.9875 101.854 80.2675 102.107 80.5475C103.624 81.9475 104.383 84.1876 105.141 86.1476C105.9 88.1077 108.681 86.4276 107.923 84.4676C106.658 81.6675 104.636 76.3473 101.096 76.6273C98.0613 76.6273 96.797 80.8275 96.0384 83.3475C94.5213 88.1077 94.0156 93.4278 93.7627 98.4679C93.257 104.068 93.257 109.948 93.5098 115.548C93.7627 120.309 94.0156 125.629 95.7856 130.109C96.797 132.069 99.5784 130.389 98.8199 128.149Z" fill="#E9EBEA"/>
<path d="M122.083 140.189C130.174 137.389 136.748 130.949 141.806 123.669C147.116 116.108 150.908 107.148 151.161 97.3479C151.161 96.5078 150.656 95.6678 149.897 95.6678C144.84 94.8278 139.53 93.7078 134.22 93.7078C132.197 93.7078 132.197 97.0678 134.22 97.0678C139.277 97.0678 144.081 97.9079 148.886 98.7479C148.38 98.1879 148.127 97.6279 147.621 97.0678C147.621 105.748 143.828 114.148 139.277 121.149C134.726 127.869 128.404 134.029 121.071 136.549C119.554 137.389 120.313 140.749 122.083 140.189Z" fill="#E9EBEA"/>
<path d="M107.419 83.0676C105.902 73.8273 106.66 64.0271 108.43 55.0668C109.189 51.1467 110.2 46.9466 111.97 43.3065C112.223 42.7465 112.729 42.1864 112.982 41.6264C113.487 41.0664 113.74 40.7864 113.993 40.5064C114.752 39.9464 115.257 39.9464 116.016 40.2264C116.269 40.2264 117.027 40.7864 117.533 41.3464C118.292 42.1865 118.797 42.7465 119.556 43.8665C121.326 46.6666 122.59 49.7466 123.854 52.8267C124.613 54.7868 127.394 53.1068 126.636 51.1467C124.866 46.3866 122.59 40.5064 118.292 37.7063C115.51 36.0263 112.729 36.8663 110.706 39.3864C108.177 42.7465 106.913 46.9466 105.902 51.1467C104.637 56.4669 103.879 61.787 103.626 67.3872C103.373 72.9873 103.373 78.8675 104.132 84.4676C104.637 86.1477 107.672 85.3076 107.419 83.0676Z" fill="#E9EBEA"/>
<path d="M138.519 97.0682C151.161 87.8279 157.483 71.0275 162.034 55.9071C162.287 54.787 161.529 53.667 160.517 53.667C154.701 53.667 148.886 55.3471 143.323 57.5871C141.3 58.4272 142.311 61.7872 144.081 60.9472C149.391 58.9872 154.954 57.3071 160.517 57.3071C160.011 56.4671 159.506 55.9071 159 55.067C154.701 69.3474 148.886 85.5879 137.001 94.2681C135.231 95.3882 137.001 98.1882 138.519 97.0682Z" fill="#E9EBEA"/>
<path d="M125.877 48.0668C125.877 46.9468 125.877 46.1068 125.877 44.9868C125.877 44.4268 125.877 43.8668 125.877 43.5867C125.877 43.3067 125.877 43.0267 125.877 43.0267C125.877 43.0267 125.877 42.4667 125.877 42.7467C125.877 42.4667 125.877 42.4667 125.877 42.1867C126.13 40.2267 126.636 37.9866 127.142 36.0265C127.395 34.9065 127.9 34.0665 128.153 32.9464C128.153 32.9464 128.406 32.6664 128.153 32.9464V32.6664C128.153 32.3864 128.406 32.1064 128.406 31.8264C128.659 31.2664 128.912 30.7064 129.165 30.4263C129.923 28.7463 130.935 27.0663 131.946 25.3862C132.199 25.1062 132.452 24.5462 132.705 24.2662C132.705 23.9862 132.957 23.9862 132.957 23.7062C133.21 23.4262 132.705 23.9862 132.957 23.7062L133.21 23.4262C133.716 22.8661 134.222 22.0261 134.727 21.4661C135.233 20.9061 135.739 20.3461 136.245 20.0661C136.497 19.7861 135.992 20.3461 136.245 20.0661L136.497 19.7861C136.75 19.5061 137.003 19.506 137.256 19.226C137.256 19.226 137.509 19.2261 137.509 18.9461C137.762 18.666 137.256 18.9461 137.509 18.9461C137.762 18.9461 138.015 18.666 138.267 18.666C138.52 18.666 138.015 18.666 138.267 18.666H138.52H138.773C138.267 18.666 138.52 18.666 138.773 18.666C139.026 18.666 138.773 18.666 138.773 18.666C138.773 18.666 139.026 18.666 139.026 18.9461C139.279 19.2261 138.773 18.666 139.026 18.9461L139.279 19.226C139.532 19.506 139.026 18.946 139.279 19.226C139.279 19.226 139.279 19.5061 139.532 19.5061C139.532 19.5061 139.532 19.7861 139.785 19.7861C139.785 20.0661 139.785 19.5061 139.785 19.5061V19.7861C139.785 20.0661 140.037 20.6261 140.037 20.9061C140.037 21.1861 140.037 21.4661 140.037 21.4661C140.037 21.7461 140.037 20.9061 140.037 21.4661V21.7461C140.037 22.8662 140.037 23.9862 140.037 25.1062C139.785 28.4663 139.279 31.8264 138.773 35.1865C138.267 37.4266 141.302 38.2666 141.807 36.0265C142.566 32.6664 143.072 29.3063 143.325 25.9462C143.577 23.7062 143.577 21.4661 143.072 19.5061C142.566 16.706 140.543 14.1859 137.509 15.0259C134.727 15.8659 132.452 18.6661 130.935 21.1861C128.406 24.8262 126.636 28.7463 125.119 32.6664C123.349 37.4265 122.337 42.4667 122.843 47.5068C122.843 48.3469 123.602 49.1869 124.36 49.1869C125.119 49.7469 125.877 48.9069 125.877 48.0668Z" fill="#E9EBEA"/>
<path d="M140.29 37.4264C145.347 33.7863 149.898 29.0262 155.461 26.2261C154.703 25.6661 153.944 25.1061 153.186 24.8261C153.944 35.1863 152.174 46.1067 149.393 55.9069C148.634 58.147 151.921 58.987 152.427 56.747C155.461 46.6667 157.231 35.4664 156.473 24.8261C156.473 23.426 155.208 22.866 154.197 23.426C148.634 26.2261 144.083 30.9862 139.026 34.6263C137.003 35.4664 138.52 38.5464 140.29 37.4264Z" fill="#E9EBEA"/>
<path d="M141.808 16.1462C144.336 11.6661 146.612 7.18598 149.899 3.54588C149.646 3.82588 149.141 3.82588 148.888 4.10588C149.393 4.10588 149.899 4.10588 150.658 4.10588C150.152 3.54587 149.646 3.26586 149.141 2.70584C150.152 9.98605 149.899 17.2663 149.899 24.5465C149.899 26.7865 153.186 26.7865 152.933 24.5465C152.933 16.9862 152.933 9.14604 151.922 1.58583C151.922 0.745807 150.911 0.185791 150.405 0.185791C149.646 0.185791 148.888 0.185791 148.382 0.185791C147.623 0.465799 147.118 1.30581 146.612 2.14584C146.106 2.98586 145.348 3.54588 144.842 4.38591C142.566 7.46599 140.796 10.8261 139.026 14.1862C138.015 16.4262 140.543 18.1063 141.808 16.1462Z" fill="#E9EBEA"/>
<path d="M92.7523 148.589C95.7866 150.269 99.3266 151.389 101.602 153.909C101.602 153.069 101.855 151.949 101.855 151.109C97.8095 153.629 93.7638 156.709 89.718 159.509C88.9595 160.069 88.7066 161.189 89.2123 162.029C89.718 162.869 90.7295 163.15 91.488 162.59C95.5338 159.789 99.3266 156.709 103.625 154.189C104.384 153.629 104.637 152.229 103.878 151.389C101.349 148.589 97.5566 147.189 94.2695 145.509C93.5109 145.229 92.4995 145.229 91.9938 146.069C91.7409 146.909 91.9938 148.309 92.7523 148.589Z" fill="#E9EBEA"/>
<path d="M105.396 192.551C104.638 190.871 103.879 189.471 103.121 187.791C102.615 186.951 102.109 185.831 101.856 184.991C101.856 184.991 101.856 184.711 101.604 184.711C101.604 184.431 101.604 184.991 101.604 184.711C101.604 184.431 101.351 184.151 101.351 183.871C101.098 183.31 101.098 183.03 101.098 182.47C101.098 182.19 101.098 182.19 101.098 181.91C101.098 182.47 101.098 181.63 101.098 181.63C101.098 181.35 101.098 181.35 101.098 181.07C101.098 181.63 101.098 181.07 101.098 180.79C101.098 181.07 101.098 180.79 101.098 180.79C101.098 180.51 100.845 181.07 101.098 180.79C101.351 180.51 100.845 180.79 100.845 180.79C100.845 180.79 100.845 180.79 101.098 180.79C101.098 180.79 101.351 180.79 101.098 180.79C100.845 180.79 101.098 180.79 101.098 180.79C101.351 180.79 101.604 180.51 102.109 180.51C101.856 180.51 102.109 180.51 102.362 180.51C102.615 180.51 102.868 180.51 103.121 180.51C104.132 180.51 104.891 180.51 105.902 180.51C107.419 180.51 109.189 180.79 110.706 180.79C112.729 180.79 112.729 177.43 110.706 177.43C109.189 177.43 107.672 177.15 105.902 177.15C104.132 177.15 102.109 176.87 100.339 177.43C95.7879 178.83 98.0636 184.991 99.5807 188.351C100.592 190.311 101.604 192.271 102.615 194.231C102.868 195.071 104.132 195.351 104.891 194.791C105.649 194.231 105.649 193.391 105.396 192.551Z" fill="#E9EBEA"/>
<path d="M69.7434 219.431C74.2949 221.951 79.6049 221.391 84.662 220.551C85.4206 220.271 85.9263 219.151 85.6735 218.311C85.1678 215.791 83.9035 213.551 82.6392 211.591C82.1335 210.471 81.3749 209.631 80.8692 208.511C80.6163 207.95 80.3635 207.67 80.1106 207.11C79.8577 206.83 79.8577 206.55 79.8577 206.27C79.8577 206.27 79.8577 205.99 79.6049 205.99C79.6049 205.99 79.352 205.71 79.6049 205.71C79.352 204.87 78.5934 204.31 77.582 204.59C76.8234 204.87 76.0649 205.99 76.5706 206.83C77.3292 209.071 78.5935 211.031 79.8577 212.991C81.122 214.951 82.3863 217.191 82.892 219.431C83.1449 218.591 83.6506 218.031 83.9035 217.191C80.1106 217.751 75.0534 218.311 71.5134 216.351C70.7549 216.071 69.7434 216.071 69.2377 216.911C68.732 217.751 68.9849 218.871 69.7434 219.431Z" fill="#E9EBEA"/>
<path d="M87.6961 242.952C87.4432 242.392 87.1904 241.552 86.6847 240.992C86.4318 240.712 86.4318 240.432 86.179 240.152C86.179 239.872 85.9261 239.872 85.9261 239.592C85.9261 239.592 85.9261 239.592 85.9261 239.312C85.9261 239.032 85.9261 239.592 85.9261 239.312C85.4204 238.192 85.1675 237.072 84.9147 235.952C84.9147 235.672 84.9147 235.672 84.9147 235.952V235.672C84.9147 235.392 84.9147 235.112 84.9147 235.112V234.832C84.9147 234.832 84.9147 235.392 84.9147 234.832V234.552C84.9147 234.272 84.9147 234.552 84.9147 234.552C84.9147 234.272 85.1675 234.272 85.1675 233.992C85.1675 233.712 84.9147 234.272 85.1675 233.992L85.4204 233.712C85.6732 233.432 85.1675 233.712 85.4204 233.712C85.4204 233.712 85.6732 233.712 85.6732 233.432C85.6732 233.432 85.9261 233.432 85.9261 233.152C86.179 232.872 85.6732 233.152 85.9261 233.152C86.179 233.152 86.4318 232.872 86.6847 232.872C86.9375 232.872 86.9375 232.872 87.1904 232.872H87.4433C87.6961 232.872 87.1904 232.872 87.4433 232.872C88.2018 232.872 89.2133 232.872 89.9718 232.872C90.7304 232.872 91.489 232.032 91.489 231.192C91.489 230.352 90.7304 229.511 89.9718 229.511C87.1904 229.511 83.9032 229.511 82.1332 232.312C80.8689 234.552 81.6275 237.632 82.3861 239.872C82.8918 241.552 83.6504 243.512 84.6618 245.192C85.1675 246.032 86.179 246.312 86.9375 245.752C87.949 244.632 87.949 243.792 87.6961 242.952Z" fill="#E9EBEA"/>
<path d="M47.2382 267.032C51.7896 268.992 56.0882 270.392 60.8925 270.672C61.6511 270.672 62.1568 270.112 62.4097 269.272C63.1682 265.912 61.6511 262.552 60.3868 259.752C59.1225 256.672 57.6054 253.872 55.8354 251.072C54.8239 249.112 52.0425 250.792 53.0539 252.752C54.5711 255.272 56.0882 258.072 57.3525 260.592C57.8582 261.992 58.6168 263.392 58.8697 264.792C58.8697 265.072 59.1225 265.632 59.1225 265.912C59.1225 266.192 59.1225 266.192 59.1225 266.472V266.752C59.1225 267.032 59.1225 267.312 59.1225 267.872C59.1225 268.152 59.1225 268.152 59.1225 268.432C59.1225 268.152 59.1225 268.432 59.1225 268.432C59.6282 267.872 60.134 267.592 60.6397 267.032C56.3411 266.752 52.2954 265.632 48.5025 263.672C47.7439 263.392 46.7325 263.392 46.2268 264.232C46.2268 265.352 46.4796 266.472 47.2382 267.032Z" fill="#E9EBEA"/>
<path d="M60.8916 295.874C59.6273 292.233 57.8573 289.433 57.3516 285.793C57.3516 286.073 57.3516 285.513 57.3516 285.513C57.3516 285.233 57.3516 285.233 57.3516 284.953C57.3516 284.673 57.3516 284.393 57.3516 284.673C57.3516 284.393 57.3516 284.393 57.6045 284.113C57.6045 284.113 57.3516 284.393 57.6045 284.113C57.6045 283.833 57.6045 284.113 57.6045 284.113L57.8573 283.833C57.6045 284.113 57.8573 283.833 57.8573 283.833H58.1102C58.363 283.553 57.8573 283.833 58.1102 283.833C58.363 283.833 58.6159 283.553 59.1216 283.553C59.3745 283.553 59.3745 283.553 59.6273 283.553H59.8802C59.6273 283.553 59.8802 283.553 59.8802 283.553C60.6388 283.553 61.6502 283.553 62.4088 283.553C63.4202 283.553 64.1788 283.553 65.1902 283.833C65.4431 283.833 64.9373 283.833 65.1902 283.833H65.4431C65.6959 283.833 65.6959 283.833 65.9488 283.833C66.2016 283.833 66.4545 283.833 66.9602 284.113C68.9831 284.673 69.7416 281.313 67.7188 280.753C66.2016 280.193 64.4316 280.193 62.9145 280.193C61.1445 280.193 59.1216 280.193 57.3516 280.753C56.593 281.033 55.8345 281.593 55.0759 282.153C54.3173 282.993 54.0645 283.833 54.0645 284.953C54.0645 286.913 54.5702 289.153 55.3287 291.113C55.8345 292.233 56.3402 293.633 56.8459 294.753C57.0987 295.314 57.3516 295.594 57.3516 296.154C57.3516 296.434 57.6045 296.434 57.6045 296.714C57.3516 296.154 57.6045 296.994 57.6045 296.994C57.8573 297.834 58.6159 298.394 59.6273 298.114C60.6388 297.554 61.1445 296.714 60.8916 295.874Z" fill="#E9EBEA"/>
<path d="M18.9174 320.794C20.4345 321.634 22.4574 322.474 24.2274 322.754C26.2503 323.034 28.2731 323.314 30.0431 322.754C31.8131 322.194 33.3303 320.794 33.5831 318.834C33.836 316.594 32.8246 314.074 31.8131 312.114C31.3074 310.994 30.5488 309.874 30.0431 308.474C29.7903 307.914 29.5374 307.354 29.2845 306.794C29.2845 306.514 29.0317 306.234 29.0317 305.954C29.0317 305.674 29.0317 305.954 29.0317 305.954C29.0317 305.674 29.0317 305.674 28.7788 305.394C28.526 304.554 27.7674 303.994 26.756 304.274C25.9974 304.554 25.4917 305.394 25.7445 306.514C26.2503 308.474 27.2617 310.154 28.2731 312.114C28.7788 312.954 29.2845 314.074 29.5374 315.194L29.7903 315.754C29.7903 316.034 30.0431 316.034 30.0431 316.314C30.296 316.874 30.296 317.154 30.296 317.714C30.296 317.714 30.296 318.274 30.296 317.714V317.994C30.296 318.274 30.296 318.274 30.296 318.554C30.296 317.994 30.296 318.554 30.296 318.834C30.296 319.114 30.0431 319.114 30.296 318.834C30.296 318.834 30.296 319.114 30.0431 319.114C30.0431 319.394 30.296 318.834 30.0431 319.114C30.0431 319.114 30.0431 319.114 29.7903 319.394C29.5374 319.674 30.0431 319.394 29.7903 319.394C29.5374 319.394 29.5374 319.674 29.2845 319.674H29.0317C28.7788 319.954 29.2845 319.674 29.0317 319.674C28.7788 319.674 28.2731 319.954 28.0203 319.954H27.7674C27.7674 319.954 28.0203 319.954 27.7674 319.954C27.5145 319.954 27.2617 319.954 27.0088 319.954C26.5031 319.954 26.2503 319.954 25.7445 319.954C25.4917 319.954 25.2388 319.954 24.986 319.954H24.7331C24.7331 319.954 24.2274 319.954 24.4802 319.954C23.4688 319.674 22.7102 319.674 21.6988 319.394C21.1931 319.114 20.9402 319.114 20.4345 318.834C20.4345 318.834 20.1817 318.834 20.4345 318.834C20.6874 318.834 20.1817 318.834 20.1817 318.834C19.9288 318.834 19.9288 318.554 19.676 318.554C18.6645 316.874 16.8945 319.674 18.9174 320.794Z" fill="#E9EBEA"/>
<path d="M23.4687 362.235C23.2158 361.955 23.2158 361.675 22.963 361.675C22.963 361.675 22.7101 361.395 22.7101 361.115L22.4573 360.835C22.7101 361.115 22.4573 360.835 22.4573 360.835C21.9515 359.995 21.4458 359.155 20.9401 358.315C20.4344 357.475 19.9287 356.355 19.423 355.515C19.423 355.235 19.1701 354.955 19.1701 354.955C18.9172 354.395 19.1701 355.235 19.1701 354.955V354.675C18.9172 354.115 18.9172 353.835 18.6644 353.275C18.6644 352.995 18.6644 352.995 18.6644 352.715C18.6644 352.435 18.6644 352.995 18.6644 352.715V352.435C18.6644 352.155 18.6644 352.155 18.6644 351.875C18.6644 351.595 18.6644 352.155 18.6644 351.875V351.595C18.6644 351.315 18.4115 351.875 18.6644 351.875C18.6644 351.875 18.6644 351.875 18.6644 351.595C18.1587 352.435 18.9172 351.315 18.4115 351.875C18.1587 352.155 18.4115 351.875 18.4115 351.875C18.6644 351.875 18.1587 351.875 18.1587 351.875C18.1587 351.875 18.1587 351.875 18.4115 351.875C18.4115 351.875 18.9172 351.595 18.9172 351.875C18.9172 351.875 18.4115 351.875 18.6644 351.875H18.9172C19.1701 351.875 19.1701 351.875 19.423 351.875C19.9287 351.875 20.1815 351.875 20.6872 351.875C21.6987 351.875 22.4573 352.155 23.4687 352.155C23.2158 352.155 23.7215 352.155 23.9744 352.155C24.2273 352.155 24.4801 352.155 24.733 352.155C25.2387 352.155 25.7444 352.435 26.2501 352.435C26.7558 352.435 27.5144 352.715 28.0201 352.715C28.7787 352.995 29.7901 352.435 30.043 351.595C30.2958 350.755 29.7901 349.635 29.0316 349.355C27.5144 349.075 25.9973 348.795 24.4801 348.515C22.4573 348.235 20.4344 347.955 18.4115 348.235C13.6072 349.075 16.3887 356.075 17.9058 358.875C18.9172 360.835 20.1815 362.795 21.6987 364.475C22.7101 366.155 24.9858 363.915 23.4687 362.235Z" fill="#E9EBEA"/>
</svg>
