<svg width="96" height="32" viewBox="0 0 96 32" fill="none" xmlns="http://www.w3.org/2000/svg">
<path d="M1.91344 4.75979C0.793386 3.84528 0.10226 1.71089 0.127628 0.631449C0.131728 0.456992 0.235955 0.303532 0.398637 0.240392C1.39614 -0.14676 3.76532 -0.171776 5.16262 0.969093C6.43474 2.00775 7.11973 4.05961 7.44305 5.47697C7.53244 5.86884 7.21342 6.22341 6.81364 6.18184C5.25247 6.01951 2.94488 5.60193 1.91344 4.75979Z" fill="#056B53"/>
<path d="M15.28 27.7434C15.28 27.3995 15.5607 27.1222 15.9058 27.107C21.7688 26.8477 25.1451 22.9289 25.1451 17.4825C25.1451 12.036 21.7688 8.11717 15.9058 7.85793C15.5607 7.84267 15.28 7.56545 15.28 7.22153V2.10211C15.28 1.7582 15 1.4794 14.6546 1.4794H10.7902C10.4448 1.4794 10.1648 1.7582 10.1648 2.10211V7.22153C10.1648 7.56545 9.88401 7.84267 9.53893 7.85793C3.67596 8.11717 0.29967 12.036 0.29967 17.4825C0.29967 22.9289 3.67596 26.8477 9.53893 27.107C9.88401 27.1222 10.1648 27.3995 10.1648 27.7434V31.3773C10.1648 31.7212 10.4448 32 10.7902 32H14.6546C15 32 15.28 31.7212 15.28 31.3773V27.7434ZM10.1648 22.8609C10.1648 23.2048 9.88334 23.488 9.54 23.4504C6.72056 23.1414 5.4149 20.7082 5.4149 17.4825C5.4149 14.2567 6.72056 11.8235 9.54 11.5145C9.88334 11.4769 10.1648 11.7601 10.1648 12.104V22.8609ZM20.0298 17.4825C20.0298 20.7082 18.7242 23.1414 15.9047 23.4504C15.5614 23.488 15.28 23.2048 15.28 22.8609V12.104C15.28 11.7601 15.5614 11.4769 15.9047 11.5145C18.7242 11.8235 20.0298 14.2567 20.0298 17.4825Z" fill="#056B53"/>
<path d="M26.508 31.3773C26.508 31.7212 26.788 32 27.1334 32H30.9978C31.3432 32 31.6232 31.7212 31.6232 31.3773V25.0561C31.6232 24.9911 31.6761 24.9384 31.7414 24.9384C31.7816 24.9384 31.8182 24.9574 31.8416 24.9899C32.1008 25.3507 33.7898 27.4844 37.4692 27.4844C42.9498 27.4844 45.6901 22.7562 45.6901 17.4825C45.6901 12.2087 42.9498 7.48055 37.4692 7.48055C33.6076 7.48055 31.9062 10.0917 31.656 10.5145C31.6346 10.5508 31.5968 10.572 31.5546 10.572C31.4916 10.572 31.4405 10.5212 31.4405 10.4585V8.64882C31.4405 8.3049 31.1605 8.0261 30.8151 8.0261H27.1334C26.788 8.0261 26.508 8.3049 26.508 8.64882V31.3773ZM31.4405 17.4825C31.4405 14.0636 32.902 11.2995 36.0077 11.2995C39.1134 11.2995 40.5749 14.0636 40.5749 17.4825C40.5749 20.9013 39.1134 23.6655 36.0077 23.6655C32.902 23.6655 31.4405 20.9013 31.4405 17.4825Z" fill="#056B53"/>
<path d="M47.4343 17.4825C47.4343 23.0108 50.5399 27.4844 56.934 27.4844C63.2107 27.4844 65.172 23.1887 65.7068 21.4619C65.8204 21.0953 65.5359 20.7558 65.1506 20.7558H61.2894C60.9885 20.7558 60.7277 20.9688 60.6218 21.2493C60.3084 22.0794 59.4096 23.6655 57.1167 23.6655C54.2873 23.6655 53.0105 21.8109 52.6565 19.2415C52.6071 18.8826 52.8963 18.5736 53.2601 18.5736H65.4401C65.7721 18.5736 66.0465 18.3154 66.058 17.9851C66.0638 17.8159 66.0683 17.6357 66.0683 17.4825C66.0683 11.9541 63.1819 7.48055 56.934 7.48055C50.6861 7.48055 47.4343 11.9541 47.4343 17.4825ZM56.934 11.2995C59.1922 11.2995 60.2485 12.6418 60.6805 14.5947C60.7623 14.9643 60.4674 15.3002 60.0874 15.3002H53.4858C53.0942 15.3002 52.7966 14.9445 52.9032 14.5693C53.4543 12.6302 54.6855 11.2995 56.934 11.2995Z" fill="#056B53"/>
<path d="M83.9645 8.64882C83.9645 8.3049 83.6844 8.0261 83.339 8.0261H79.4747C79.1292 8.0261 78.8492 8.3049 78.8492 8.64882V17.8462C78.8492 21.6651 77.68 23.3018 75.4878 23.3018C73.4783 23.3018 72.8206 21.8469 72.8206 18.5736V8.64882C72.8206 8.3049 72.5406 8.0261 72.1952 8.0261H68.3308C67.9854 8.0261 67.7054 8.3049 67.7054 8.64882V19.6647C67.7054 24.0292 68.9841 27.4844 73.734 27.4844C77.2046 27.4844 78.8811 24.5079 79.1693 23.9402C79.1979 23.8839 79.2554 23.8473 79.3188 23.8473C79.3876 23.8473 79.4488 23.8912 79.4722 23.9556C80.2541 26.112 81.859 27.4844 84.8779 27.4844C88.4021 27.4844 89.768 24.4153 89.967 23.9157C89.9838 23.8736 90.0235 23.8473 90.0689 23.8473C90.128 23.8473 90.1758 23.895 90.1758 23.9537V26.3161C90.1758 26.66 90.4558 26.9388 90.8012 26.9388H94.4829C94.8283 26.9388 95.1083 26.66 95.1083 26.3161V8.64882C95.1083 8.3049 94.8283 8.0261 94.4829 8.0261H90.6185C90.2731 8.0261 89.9931 8.3049 89.9931 8.64882V17.8462C89.9931 21.6651 88.8239 23.3018 86.6317 23.3018C84.6221 23.3018 83.9645 21.8469 83.9645 18.5736V8.64882Z" fill="#056B53"/>
</svg>
