<svg width="24" height="24" viewBox="0 0 24 24" fill="none" xmlns="http://www.w3.org/2000/svg">
<g clip-path="url(#clip0_9_4218)">
<path d="M11.9992 22.4983C19 22.4983 22.4983 17.7977 22.4983 11.9992C22.4983 6.20064 19 1.5 11.9992 1.5C4.99833 1.5 1.5 6.20064 1.5 11.9992C1.5 17.7977 4.99833 22.4983 11.9992 22.4983Z" fill="url(#paint0_radial_9_4218)"/>
<path d="M11.9992 22.4983C19 22.4983 22.4983 17.7977 22.4983 11.9992C22.4983 6.20064 19 1.5 11.9992 1.5C4.99833 1.5 1.5 6.20064 1.5 11.9992C1.5 17.7977 4.99833 22.4983 11.9992 22.4983Z" fill="url(#paint1_radial_9_4218)"/>
<path d="M11.9992 22.4983C19 22.4983 22.4983 17.7977 22.4983 11.9992C22.4983 6.20064 19 1.5 11.9992 1.5C4.99833 1.5 1.5 6.20064 1.5 11.9992C1.5 17.7977 4.99833 22.4983 11.9992 22.4983Z" fill="url(#paint2_radial_9_4218)" fill-opacity="0.6"/>
<path d="M11.9992 22.4983C19 22.4983 22.4983 17.7977 22.4983 11.9992C22.4983 6.20064 19 1.5 11.9992 1.5C4.99833 1.5 1.5 6.20064 1.5 11.9992C1.5 17.7977 4.99833 22.4983 11.9992 22.4983Z" fill="url(#paint3_radial_9_4218)"/>
<path d="M11.9992 22.4983C19 22.4983 22.4983 17.7977 22.4983 11.9992C22.4983 6.20064 19 1.5 11.9992 1.5C4.99833 1.5 1.5 6.20064 1.5 11.9992C1.5 17.7977 4.99833 22.4983 11.9992 22.4983Z" fill="url(#paint4_radial_9_4218)"/>
<path d="M11.9992 22.4983C19 22.4983 22.4983 17.7977 22.4983 11.9992C22.4983 6.20064 19 1.5 11.9992 1.5C4.99833 1.5 1.5 6.20064 1.5 11.9992C1.5 17.7977 4.99833 22.4983 11.9992 22.4983Z" fill="url(#paint5_radial_9_4218)"/>
<path d="M11.9992 22.4983C19 22.4983 22.4983 17.7977 22.4983 11.9992C22.4983 6.20064 19 1.5 11.9992 1.5C4.99833 1.5 1.5 6.20064 1.5 11.9992C1.5 17.7977 4.99833 22.4983 11.9992 22.4983Z" fill="url(#paint6_radial_9_4218)"/>
<circle cx="6.76278" cy="10.0654" r="3.50497" fill="url(#paint7_radial_9_4218)"/>
<ellipse cx="14.4332" cy="10.4574" rx="3.18323" ry="3.18323" fill="url(#paint8_radial_9_4218)"/>
<path d="M7.81439 12.1683C9.55655 12.1683 10.9689 10.756 10.9689 9.01385C10.9689 7.27168 9.55655 5.85938 7.81439 5.85938C6.07222 5.85938 4.65991 7.27168 4.65991 9.01385C4.65991 10.756 6.07222 12.1683 7.81439 12.1683Z" fill="white"/>
<path d="M16.1763 12.2258C17.9343 12.2258 19.3595 10.8007 19.3595 9.04261C19.3595 7.28456 17.9343 5.85938 16.1763 5.85938C14.4182 5.85938 12.993 7.28456 12.993 9.04261C12.993 10.8007 14.4182 12.2258 16.1763 12.2258Z" fill="white"/>
<path d="M8.25 11.25C9.49264 11.25 10.5 10.2426 10.5 9C10.5 7.75736 9.49264 6.75 8.25 6.75C7.00736 6.75 6 7.75736 6 9C6 10.2426 7.00736 11.25 8.25 11.25Z" fill="url(#paint9_linear_9_4218)"/>
<path d="M15.75 11.25C16.9926 11.25 18 10.2426 18 9C18 7.75736 16.9926 6.75 15.75 6.75C14.5074 6.75 13.5 7.75736 13.5 9C13.5 10.2426 14.5074 11.25 15.75 11.25Z" fill="url(#paint10_linear_9_4218)"/>
<path fill-rule="evenodd" clip-rule="evenodd" d="M7.80004 13.65C8.13142 13.4015 8.60152 13.4687 8.85004 13.8C9.08207 14.1094 10.1339 15 12 15C13.8662 15 14.918 14.1094 15.15 13.8C15.3986 13.4687 15.8687 13.4015 16.2 13.65C16.5314 13.8986 16.5986 14.3687 16.35 14.7C15.8321 15.3907 14.3339 16.5 12 16.5C9.66621 16.5 8.16802 15.3907 7.65004 14.7C7.40152 14.3687 7.46867 13.8986 7.80004 13.65Z" fill="url(#paint11_radial_9_4218)"/>
</g>
<defs>
<radialGradient id="paint0_radial_9_4218" cx="0" cy="0" r="1" gradientUnits="userSpaceOnUse" gradientTransform="translate(19.125 6.75) rotate(131.878) scale(29.2115)">
<stop stop-color="#FFF478"/>
<stop offset="0.474827" stop-color="#FFB02E"/>
<stop offset="1" stop-color="#F70A8D"/>
</radialGradient>
<radialGradient id="paint1_radial_9_4218" cx="0" cy="0" r="1" gradientUnits="userSpaceOnUse" gradientTransform="translate(12 9.375) rotate(101.31) scale(13.3849 17.1435)">
<stop offset="0.787821" stop-color="#F59639" stop-opacity="0"/>
<stop offset="0.972509" stop-color="#FF7DCE"/>
</radialGradient>
<radialGradient id="paint2_radial_9_4218" cx="0" cy="0" r="1" gradientUnits="userSpaceOnUse" gradientTransform="translate(13.5 10.5) rotate(135) scale(30.7591)">
<stop offset="0.314853" stop-opacity="0"/>
<stop offset="1"/>
</radialGradient>
<radialGradient id="paint3_radial_9_4218" cx="0" cy="0" r="1" gradientUnits="userSpaceOnUse" gradientTransform="translate(12 12.75) rotate(77.692) scale(21.1102)">
<stop offset="0.507903" stop-color="#7D6133" stop-opacity="0"/>
<stop offset="1" stop-color="#715B32"/>
</radialGradient>
<radialGradient id="paint4_radial_9_4218" cx="0" cy="0" r="1" gradientUnits="userSpaceOnUse" gradientTransform="translate(12.375 12.375) rotate(55.7131) scale(9.98515 7.23774)">
<stop stop-color="#FFB849"/>
<stop offset="1" stop-color="#FFB847" stop-opacity="0"/>
</radialGradient>
<radialGradient id="paint5_radial_9_4218" cx="0" cy="0" r="1" gradientUnits="userSpaceOnUse" gradientTransform="translate(15.375 13.5) rotate(9.86581) scale(8.75446)">
<stop stop-color="#FFA64B"/>
<stop offset="0.900412" stop-color="#FFAE46" stop-opacity="0"/>
</radialGradient>
<radialGradient id="paint6_radial_9_4218" cx="0" cy="0" r="1" gradientUnits="userSpaceOnUse" gradientTransform="translate(13.125 11.25) rotate(43.9708) scale(44.2897)">
<stop offset="0.185425" stop-opacity="0"/>
<stop offset="1" stop-opacity="0.4"/>
</radialGradient>
<radialGradient id="paint7_radial_9_4218" cx="0" cy="0" r="1" gradientUnits="userSpaceOnUse" gradientTransform="translate(9.48887 7.33931) rotate(135) scale(6.82934 3.53464)">
<stop stop-color="#392108"/>
<stop offset="1" stop-color="#C87928" stop-opacity="0"/>
</radialGradient>
<radialGradient id="paint8_radial_9_4218" cx="0" cy="0" r="1" gradientUnits="userSpaceOnUse" gradientTransform="translate(16.9091 7.98155) rotate(135) scale(5.75226 3.24724)">
<stop stop-color="#392108"/>
<stop offset="1" stop-color="#C87928" stop-opacity="0"/>
</radialGradient>
<linearGradient id="paint9_linear_9_4218" x1="12.375" y1="6" x2="11.625" y2="11.25" gradientUnits="userSpaceOnUse">
<stop stop-color="#553B3E"/>
<stop offset="1" stop-color="#3D2432"/>
</linearGradient>
<linearGradient id="paint10_linear_9_4218" x1="12.375" y1="6" x2="11.625" y2="11.25" gradientUnits="userSpaceOnUse">
<stop stop-color="#553B3E"/>
<stop offset="1" stop-color="#3D2432"/>
</linearGradient>
<radialGradient id="paint11_radial_9_4218" cx="0" cy="0" r="1" gradientUnits="userSpaceOnUse" gradientTransform="translate(12 12.75) rotate(90) scale(4.125 6.31391)">
<stop offset="0.34763" stop-color="#241A1A"/>
<stop offset="0.628228" stop-color="#57444A"/>
<stop offset="1" stop-color="#4E2553"/>
<stop offset="1" stop-color="#502A56"/>
</radialGradient>
<clipPath id="clip0_9_4218">
<rect width="24" height="24" fill="white"/>
</clipPath>
</defs>
</svg>
