<svg width="110" height="162" viewBox="0 0 110 162" fill="none" xmlns="http://www.w3.org/2000/svg">
<path d="M81.6797 43.1904C94.5754 51.0306 107.471 61.6709 114.551 76.2313C121.126 89.9517 119.608 105.352 111.264 117.952C103.678 129.433 92.2997 137.833 81.1739 144.273C68.7839 151.833 55.1296 157.714 40.9696 160.234C31.1081 161.914 19.7295 162.474 11.638 155.194C4.30517 148.753 1.52375 138.393 0.512321 128.313C-0.751968 116.272 0.512352 103.952 2.28236 92.1918C4.05236 80.9915 6.32802 69.5111 10.1209 58.8708C15.178 45.4305 24.5338 34.5102 37.6824 31.9901C53.1068 28.91 67.2668 36.1902 81.1739 42.3504C82.944 43.1904 82.1854 46.5505 80.4154 45.7105C68.5311 40.6703 56.6468 34.5102 43.751 34.7902C32.6253 35.3502 23.0167 41.5104 16.9481 51.8707C11.3852 61.3909 9.1095 73.1512 7.08664 84.0715C5.06377 94.7118 3.54663 105.632 3.29377 116.552C3.04091 126.633 4.0523 137.553 8.8566 145.953C13.9137 154.914 22.5109 157.714 31.6138 157.434C44.2567 156.874 56.6467 152.673 68.2782 147.073C80.1625 141.473 91.794 134.193 101.403 124.393C112.023 113.472 119.103 98.632 113.793 82.3915C108.23 65.871 93.564 54.1107 80.1625 45.9905C78.1397 45.1505 79.9097 42.0704 81.6797 43.1904Z" fill="#E9EBEA"/>
<path d="M81.4274 42.0699C84.9674 43.75 89.0132 44.87 92.806 43.75C95.8403 42.9099 98.3689 40.3899 100.392 37.5898C104.943 31.1496 107.472 22.7494 110.506 15.1892C112.023 11.2691 113.793 7.34894 116.322 4.26886C117.08 5.10888 117.586 6.22891 118.345 7.06894C105.449 17.4292 85.726 24.4294 83.4503 44.59C83.1974 46.8301 80.1632 45.99 80.416 43.75C82.9446 22.4694 103.173 15.1892 116.828 4.26886C118.345 3.14883 119.862 5.6689 118.85 7.06894C114.046 13.5091 111.77 22.1894 108.736 29.4696C105.702 36.4698 101.656 44.59 94.5761 47.3901C90.0246 49.0701 85.2203 47.9501 80.9217 45.99C78.646 44.59 79.4046 41.2299 81.4274 42.0699Z" fill="#E9EBEA"/>
<path d="M79.6567 40.9505C83.1967 28.6301 83.7024 14.0697 76.3695 3.14943C77.381 3.14943 78.1396 3.14943 79.151 3.14943C75.611 9.0296 74.8524 16.3098 75.1052 23.03C75.3581 29.7502 76.8753 37.3104 81.4267 42.3505C82.9438 44.0306 80.6681 46.5506 79.151 44.8706C74.3467 39.2704 72.3238 31.1502 72.0709 23.59C71.5652 16.0298 72.8295 7.62957 76.6224 1.18939C77.381 0.0693575 78.6453 0.0693575 79.4039 1.18939C87.2425 12.6697 86.7367 28.3501 82.9439 41.7905C82.1853 44.0306 79.1509 43.1905 79.6567 40.9505Z" fill="#E9EBEA"/>
<path d="M81.9333 43.4699C95.8404 57.7503 118.092 54.6702 129.723 38.4298C129.976 39.2698 130.229 40.3898 130.482 41.2299C126.436 39.8298 122.39 37.8698 118.092 36.1897C114.046 34.7897 109.748 33.3896 105.702 35.0697C103.679 35.9097 102.92 32.5496 104.943 31.7096C113.54 28.3495 123.402 34.7897 131.241 37.8698C132.505 38.4298 132.758 39.8298 131.999 40.6698C119.356 58.5903 94.8289 61.1104 79.6575 45.71C78.1403 44.3099 80.4161 41.7899 81.9333 43.4699Z" fill="#E9EBEA"/>
<path d="M107.219 86.8715C105.955 89.6716 103.679 91.3516 101.656 93.3117C101.404 93.5917 100.898 93.5917 100.392 93.5917C100.139 93.5917 99.6336 93.0317 99.3807 92.7516C99.1279 92.4716 99.1278 91.9116 99.1278 91.3516C99.3807 90.7916 99.6335 90.5116 99.8864 90.2316C100.139 89.9516 99.6335 90.5116 99.8864 90.2316C99.8864 90.2316 100.139 90.2316 100.139 89.9516C100.392 89.9516 100.392 89.6716 100.645 89.6716C100.898 89.3916 101.151 89.1115 101.404 89.1115C101.909 88.8315 102.415 88.2715 102.668 87.7115C102.921 87.4315 103.174 87.4315 103.174 87.1515L103.426 86.8715C103.426 86.8715 103.426 86.8715 103.679 86.5915C103.932 86.3115 103.426 86.8715 103.679 86.5915C103.932 86.0315 104.185 85.4714 104.438 84.9114C104.691 84.0714 105.955 83.7914 106.714 84.3514C107.472 85.1914 107.725 86.0315 107.219 86.8715Z" fill="#E9EBEA"/>
<path d="M82.4385 66.9907C81.1742 68.1108 80.1628 69.2308 79.1513 70.6308C79.1513 70.6308 79.1513 70.9108 78.8985 70.9108C78.8985 70.6308 78.8985 70.9108 78.8985 70.9108C78.8985 71.1908 78.6456 71.1909 78.6456 71.4709C78.3927 71.7509 78.1399 72.0309 77.8871 72.5909C77.3813 73.4309 76.8756 73.9909 76.6228 74.8309C76.1171 75.671 75.1056 75.951 74.3471 75.391C73.5885 74.831 73.3356 73.7109 73.8413 72.8709C75.6113 69.7908 77.6342 66.7107 80.1628 64.4707C80.4156 64.1907 80.9213 63.9106 81.1742 63.9106C81.6799 63.9106 81.9327 64.1907 82.1856 64.4707C82.9442 65.0307 83.197 66.1507 82.4385 66.9907Z" fill="#E9EBEA"/>
<path d="M48.5554 48.7903C48.3025 49.0703 48.0497 49.0703 47.7968 49.3503C47.544 49.3503 47.5439 49.6303 47.2911 49.6303C47.2911 49.6303 47.0382 49.6303 47.0382 49.9103C47.0382 49.9103 46.7854 50.1903 47.0382 49.9103C47.2911 49.6303 47.0382 49.9103 47.0382 49.9103C47.0382 49.9103 46.7853 49.9103 46.7853 50.1903L46.5325 50.4703C46.2797 50.7503 46.0268 51.0303 45.7739 51.3104L45.5211 51.5904C45.2682 51.8704 45.5211 51.5904 45.5211 51.5904C45.5211 51.5904 45.5211 51.8704 45.2683 51.8704C45.0154 52.1504 45.0154 52.4304 44.7625 52.7104C44.5097 52.9904 44.5096 53.2704 44.2568 53.5504C44.2568 53.8304 44.004 53.8304 44.004 54.1104C44.004 54.1104 44.004 54.6704 44.004 54.1104V54.3905C43.7511 54.9505 43.7511 55.2305 43.2453 55.5105C42.9925 55.7905 42.4868 55.7905 41.9811 55.7905C41.2225 55.5105 40.4639 54.6705 40.9696 53.5504C41.4754 51.8704 42.2339 50.1903 43.4982 48.7903C44.5097 47.6703 45.5211 46.5502 46.7853 45.9902C47.5439 45.7102 48.5554 45.7102 49.0611 46.5502C49.5668 47.1102 49.314 48.2303 48.5554 48.7903Z" fill="#E9EBEA"/>
<path d="M82.1858 93.3112C80.4158 95.5512 78.6458 97.7913 76.1172 99.1913C75.3587 99.4713 74.3473 99.4713 73.8415 98.6313C73.5887 97.7913 73.5887 96.6713 74.3473 96.1112C74.853 95.8312 75.3587 95.5512 75.8644 94.9912C75.8644 94.9912 75.8644 94.9912 76.1172 94.9912C75.8644 95.2712 75.8644 94.9912 76.1172 94.9912L76.3701 94.7112C76.623 94.4312 76.8758 94.1512 77.1287 93.8712C78.1401 93.0312 78.8987 91.9111 79.6572 90.7911C80.163 90.2311 81.4273 90.2311 81.933 90.7911C82.9444 91.6311 82.9444 92.7511 82.1858 93.3112Z" fill="#E9EBEA"/>
<path d="M57.1531 77.0713C55.3831 78.7513 53.6131 80.7114 52.0959 82.6714C51.5902 83.2315 50.3259 83.2315 49.8202 82.6714C49.3145 81.8314 49.3145 80.9914 49.8202 80.1514C51.3373 78.1913 52.8545 75.9513 54.8774 74.5512C55.1302 74.2712 55.6359 73.9912 55.8888 73.9912C56.3945 73.9912 56.6473 74.2712 56.9002 74.5512C57.153 74.8312 57.4059 75.3912 57.4059 75.6713C57.6588 76.2313 57.6588 76.7913 57.1531 77.0713Z" fill="#E9EBEA"/>
<path d="M81.4275 119.912C78.1403 122.712 75.1061 126.072 71.5661 128.872C70.8075 129.432 70.0489 129.712 69.2903 128.872C68.7846 128.312 68.5318 126.912 69.2903 126.352C72.5775 123.552 75.6118 120.192 79.1518 117.392C79.9104 116.832 80.6689 116.552 81.4275 117.392C81.9332 117.952 82.1861 119.352 81.4275 119.912Z" fill="#E9EBEA"/>
<path d="M56.1417 103.672C54.3717 105.072 52.3488 106.192 50.5788 107.592C50.326 107.872 49.8203 107.872 49.3145 107.872C49.0617 107.872 48.556 107.312 48.3031 107.032C48.0503 106.752 48.0502 106.192 48.0502 105.632C48.3031 105.072 48.556 104.792 48.8089 104.512C50.5789 103.112 52.6017 101.992 54.3717 100.592C54.6245 100.312 55.1303 100.312 55.636 100.312C55.8888 100.312 56.3946 100.872 56.6475 101.152C56.9003 101.432 56.9003 101.992 56.9003 102.552C56.6474 103.112 56.3946 103.392 56.1417 103.672Z" fill="#E9EBEA"/>
<path d="M30.6031 76.7909C28.8331 79.871 26.8103 82.6711 25.2931 85.7512C24.7874 86.5912 23.776 86.8712 23.0174 86.3112C22.2588 85.7511 22.006 84.9111 22.5117 83.7911C24.0289 80.711 26.0517 77.9109 27.8217 74.8309C28.3274 73.9908 29.3389 73.7108 30.0975 74.2708C30.6032 74.8309 31.1089 75.9509 30.6031 76.7909Z" fill="#E9EBEA"/>
<path d="M51.0836 125.232C48.8079 127.192 46.785 129.712 44.5093 131.672C44.2564 131.952 43.7507 132.232 43.4979 132.232C42.9922 132.232 42.7393 131.952 42.4865 131.672C41.9807 131.112 41.7279 129.712 42.4865 129.152C44.7622 127.192 46.7851 124.672 49.0608 122.712C49.3136 122.432 49.8193 122.152 50.0722 122.152C50.5779 122.152 50.8307 122.432 51.0836 122.712C51.5893 123.272 51.5893 124.672 51.0836 125.232Z" fill="#E9EBEA"/>
<path d="M30.8569 103.111C28.834 105.632 27.064 107.872 25.0412 110.392C24.5354 110.952 23.2711 110.952 22.7654 110.392C22.2597 109.552 22.2597 108.712 22.7654 107.872C24.7882 105.632 26.8111 103.111 28.5811 100.591C29.0869 100.031 30.3511 100.031 30.8569 100.591C31.6154 101.431 31.6154 102.271 30.8569 103.111Z" fill="#E9EBEA"/>
<path d="M26.5582 135.312C24.7882 137.552 23.2711 139.793 21.5011 141.753C20.9953 142.313 19.7311 142.313 19.2254 141.753C18.7196 140.913 18.7196 140.073 19.2254 139.232C20.9954 136.992 22.5125 134.752 24.2825 132.792C24.7882 132.232 26.0525 132.232 26.5582 132.792C27.0639 133.632 27.0639 134.752 26.5582 135.312Z" fill="#E9EBEA"/>
<path d="M40.9708 146.793C40.4651 147.073 39.9594 147.353 39.4537 147.913C39.4537 147.913 39.4537 147.913 39.2008 147.913C39.4537 147.633 39.4537 147.913 39.2008 147.913L38.948 148.193C38.6952 148.473 38.4423 148.753 38.1894 149.033C37.178 149.873 36.4194 150.993 35.6608 152.113C35.1551 152.673 33.8908 152.673 33.3851 152.113C32.8794 151.273 32.8794 150.433 33.3851 149.593C35.1551 147.353 36.9251 145.113 39.4537 143.713C40.2123 143.433 41.2237 143.433 41.7294 144.273C41.9823 145.113 41.7294 146.233 40.9708 146.793Z" fill="#E9EBEA"/>
<path d="M15.1787 112.912C14.4201 113.472 13.9145 114.312 13.4087 114.872L13.6616 114.592C12.903 115.432 12.3973 116.552 11.8916 117.672C11.6387 117.952 11.3859 118.232 10.8802 118.512C10.6273 118.512 10.1216 118.512 9.61587 118.232C9.36302 117.952 8.85725 117.672 8.85725 117.112C8.85725 116.552 8.85727 116.272 9.11013 115.712C10.1216 113.752 11.133 111.792 12.903 110.112C13.1559 109.832 13.6616 109.552 13.9144 109.552C14.4201 109.552 14.673 109.832 14.9259 110.112C15.1788 110.392 15.4316 110.952 15.4316 111.232C15.6844 112.072 15.6844 112.632 15.1787 112.912Z" fill="#E9EBEA"/>
<path d="M29.5919 51.3102C27.5691 53.8303 26.052 56.6303 23.7762 58.5904C23.5234 58.8704 23.0176 59.1504 22.7648 59.1504C22.259 59.1504 22.0062 58.8704 21.7533 58.5904C21.2476 58.0304 20.9948 56.6303 21.7533 56.0703C24.0291 54.1103 25.7991 51.3102 27.5691 48.7901C28.0748 48.2301 29.3391 48.2301 29.8448 48.7901C30.3505 49.6302 30.3505 50.4702 29.5919 51.3102Z" fill="#E9EBEA"/>
<path d="M102.162 112.632C100.897 114.592 99.3801 116.552 97.6101 117.952C97.3573 118.232 96.8516 118.512 96.5987 118.512C96.093 118.512 95.8402 118.232 95.5873 117.952C95.3345 117.672 95.0816 117.112 95.0816 116.832C95.0816 116.272 95.3345 115.992 95.5873 115.712C96.8516 114.592 98.1159 113.192 99.1273 111.512L98.8744 111.792C99.1273 111.512 99.3802 111.232 99.3802 110.952C99.633 110.672 99.8859 110.392 100.392 110.112C100.644 110.112 101.15 110.112 101.656 110.392C102.162 110.952 102.667 112.072 102.162 112.632Z" fill="#E9EBEA"/>
<path d="M82.691 42.07C86.4838 38.1499 90.2767 34.2298 93.5638 30.0297C94.0695 29.1897 95.3339 29.4697 95.8396 30.0297C96.5982 30.8697 96.3453 31.7097 95.8396 32.5497C92.5524 36.7499 88.7595 40.67 84.9667 44.5901C84.461 45.1501 83.4495 45.1501 82.691 44.5901C82.1852 44.0301 82.1852 42.91 82.691 42.07Z" fill="#E9EBEA"/>
</svg>
