<svg width="80" height="80" viewBox="0 0 80 80" fill="none" xmlns="http://www.w3.org/2000/svg">
<path d="M10.0237 7.66453L19.474 72.9829C19.6504 74.1284 20.6332 75 21.8177 75H58.1823C59.3668 75 60.3748 74.1533 60.526 72.9829L69.9763 7.66453C70.1779 6.27001 69.069 5 67.6326 5H12.3674C10.931 5 9.82212 6.27001 10.0237 7.66453Z" fill="url(#paint0_linear_3_1321)"/>
<path d="M10.0237 7.66453L19.474 72.9829C19.6504 74.1284 20.6332 75 21.8177 75H58.1823C59.3668 75 60.3748 74.1533 60.526 72.9829L69.9763 7.66453C70.1779 6.27001 69.069 5 67.6326 5H12.3674C10.931 5 9.82212 6.27001 10.0237 7.66453Z" fill="url(#paint1_linear_3_1321)"/>
<path d="M10.0237 7.66453L19.474 72.9829C19.6504 74.1284 20.6332 75 21.8177 75H58.1823C59.3668 75 60.3748 74.1533 60.526 72.9829L69.9763 7.66453C70.1779 6.27001 69.069 5 67.6326 5H12.3674C10.931 5 9.82212 6.27001 10.0237 7.66453Z" fill="url(#paint2_linear_3_1321)"/>
<path d="M16.275 23.2364L22.4275 66.1557C22.5276 66.9274 23.2028 67.5 23.9782 67.5H55.9914C56.7667 67.5 57.442 66.9274 57.5421 66.1557L63.7196 23.2364C63.9697 21.5186 62.6442 20 60.8935 20H19.1011C17.3754 20 16.0499 21.5435 16.275 23.2364Z" fill="#4AB9FF"/>
<path d="M16.275 23.2364L22.4275 66.1557C22.5276 66.9274 23.2028 67.5 23.9782 67.5H55.9914C56.7667 67.5 57.442 66.9274 57.5421 66.1557L63.7196 23.2364C63.9697 21.5186 62.6442 20 60.8935 20H19.1011C17.3754 20 16.0499 21.5435 16.275 23.2364Z" fill="url(#paint3_radial_3_1321)"/>
<path d="M16.275 23.2364L22.4275 66.1557C22.5276 66.9274 23.2028 67.5 23.9782 67.5H55.9914C56.7667 67.5 57.442 66.9274 57.5421 66.1557L63.7196 23.2364C63.9697 21.5186 62.6442 20 60.8935 20H19.1011C17.3754 20 16.0499 21.5435 16.275 23.2364Z" fill="url(#paint4_radial_3_1321)"/>
<g filter="url(#filter0_f_3_1321)">
<path d="M60.3174 21.7026L63.1251 22.3701L57.5852 22.9541L28.5061 22.3701L51.5352 21.7026H60.3174Z" fill="white"/>
</g>
<path fill-rule="evenodd" clip-rule="evenodd" d="M60.6547 12.825C60.733 12.2783 60.3534 11.7716 59.8067 11.6932C59.26 11.6149 58.7532 11.9945 58.6749 12.5412L50.7974 67.5H52.8178L60.6547 12.825Z" fill="url(#paint5_linear_3_1321)"/>
<g filter="url(#filter1_f_3_1321)">
<path d="M65.3174 6.70258L68.1251 7.37009L62.5852 7.95411L33.5061 7.37009L56.5352 6.70258H65.3174Z" fill="#D8FCFF"/>
</g>
<g filter="url(#filter2_f_3_1321)">
<path d="M13.8139 7.5L11.0063 8.0717L16.5461 8.57188L45.6252 8.0717L22.5962 7.5H13.8139Z" fill="#9FD2F7" fill-opacity="0.75"/>
</g>
<defs>
<filter id="filter0_f_3_1321" x="27.5061" y="20.7026" width="36.6189" height="3.25153" filterUnits="userSpaceOnUse" color-interpolation-filters="sRGB">
<feFlood flood-opacity="0" result="BackgroundImageFix"/>
<feBlend mode="normal" in="SourceGraphic" in2="BackgroundImageFix" result="shape"/>
<feGaussianBlur stdDeviation="0.5" result="effect1_foregroundBlur_3_1321"/>
</filter>
<filter id="filter1_f_3_1321" x="32.5061" y="5.70258" width="36.6189" height="3.25153" filterUnits="userSpaceOnUse" color-interpolation-filters="sRGB">
<feFlood flood-opacity="0" result="BackgroundImageFix"/>
<feBlend mode="normal" in="SourceGraphic" in2="BackgroundImageFix" result="shape"/>
<feGaussianBlur stdDeviation="0.5" result="effect1_foregroundBlur_3_1321"/>
</filter>
<filter id="filter2_f_3_1321" x="10.0063" y="6.5" width="36.6189" height="3.0719" filterUnits="userSpaceOnUse" color-interpolation-filters="sRGB">
<feFlood flood-opacity="0" result="BackgroundImageFix"/>
<feBlend mode="normal" in="SourceGraphic" in2="BackgroundImageFix" result="shape"/>
<feGaussianBlur stdDeviation="0.5" result="effect1_foregroundBlur_3_1321"/>
</filter>
<linearGradient id="paint0_linear_3_1321" x1="10" y1="6.25" x2="70" y2="6.25" gradientUnits="userSpaceOnUse">
<stop stop-color="#A6D5FC"/>
<stop offset="0.203125" stop-color="#C7ECFF"/>
<stop offset="0.494792" stop-color="#C2ECFF"/>
<stop offset="0.78125" stop-color="#C2EDFF"/>
<stop offset="1" stop-color="#9ED6FD"/>
</linearGradient>
<linearGradient id="paint1_linear_3_1321" x1="40" y1="70" x2="40" y2="75" gradientUnits="userSpaceOnUse">
<stop stop-color="#DDFDFF" stop-opacity="0"/>
<stop offset="1" stop-color="#DDFDFF" stop-opacity="0.75"/>
</linearGradient>
<linearGradient id="paint2_linear_3_1321" x1="10" y1="8.75" x2="70" y2="7.5" gradientUnits="userSpaceOnUse">
<stop offset="0.208333" stop-color="#D6F3FF" stop-opacity="0"/>
<stop offset="0.375" stop-color="#D6F3FF"/>
<stop offset="0.583333" stop-color="#D6F3FF" stop-opacity="0"/>
</linearGradient>
<radialGradient id="paint3_radial_3_1321" cx="0" cy="0" r="1" gradientUnits="userSpaceOnUse" gradientTransform="translate(28.4759 61.3798) rotate(-41.9085) scale(17.7742 39.3859)">
<stop stop-color="#52C2FF"/>
<stop offset="1" stop-color="#52C2FF" stop-opacity="0"/>
</radialGradient>
<radialGradient id="paint4_radial_3_1321" cx="0" cy="0" r="1" gradientUnits="userSpaceOnUse" gradientTransform="translate(38.8692 41.6424) rotate(-45.2599) scale(79.7435 85.0437)">
<stop offset="0.812613" stop-color="#5DC8FF" stop-opacity="0"/>
<stop offset="1" stop-color="#5DC8FF"/>
</radialGradient>
<linearGradient id="paint5_linear_3_1321" x1="59.0066" y1="11.505" x2="48.3218" y2="66.7294" gradientUnits="userSpaceOnUse">
<stop offset="0.505208" stop-color="white"/>
<stop offset="1" stop-color="white" stop-opacity="0"/>
</linearGradient>
</defs>
</svg>
